<svg version="1.1" xmlns="http://www.w3.org/2000/svg" xmlns:xlink="http://www.w3.org/1999/xlink" x="0px" y="0px"
	 viewBox="0 0 3600 3600" style="enable-background:new 0 0 3600 3600;" xml:space="preserve">
<style type="text/css">
	.st0{fill:#FFFFFF;stroke:#231F20;stroke-width:2;stroke-linejoin:round;stroke-miterlimit:10;}
</style>
<path class="st0" d="M1178.8,600.9c0,0-8.6,60.7-25.4,62.8c-13.4,1.7-32.1-43.5-32.1-43.5s9.3,37.2,1.5,47c-10.8,13.4-60,2-60,2
	s42,12.9,46.5,27.2c4,12.7-46.5,35-46.5,35s44.2-18.8,54.5-9.5c9.2,8.4-3.7,49.7-3.7,49.7s14.3-35.6,28.5-39.8
	c7.1-2.1,21.6,46.7,21.6,46.7s-3.3-46.5,10.3-53.2c16.8-8.1,48.6,31.6,48.6,31.6s-10.5-34.7-4-50.6c4-10,43-19.7,43-19.7
	s-51.2-1-55.6-14.6c-4.9-15,16.7-39.3,16.7-39.3s-24.3,19.9-32.4,15C1178.3,640.6,1178.8,600.9,1178.8,600.9z"/>
<path class="st0" d="M1566.5,1844.6c0,0-65.2,49.1-83,35.2c-14.2-11,10.7-71.2,10.7-71.2s-26.3,43.8-42.8,45.6
	c-22.8,2.4-58.4-54.6-58.4-54.6s27.4,51.6,18.2,69.3c-8.2,15.7-76.7-10.8-76.7-10.8s59.3,24,60.2,42.3c0.8,16.6-50.3,43.3-50.3,43.3
	s46.9-20.1,64.3-10.7c8.7,4.7-23.6,64.3-23.6,64.3s40.7-46.9,59.8-40.3c23.4,8.1,16,75.5,16,75.5s22.8-42.5,43.8-51.4
	c13.2-5.6,59,21.9,59,21.9s-47.3-49.1-38.6-66.1c9.5-18.7,52.8-21.3,52.8-21.3s-41.6-4.1-44.7-16.3
	C1528.6,1881.5,1566.5,1844.6,1566.5,1844.6z"/>
<path class="st0" d="M1444,1215.5c0,0,7.9-67.9,23.4-70.2c12.3-1.9,29.4,48.7,29.4,48.7s-8.3-41.4-1.3-52.5
	c6.8-10.9,55.1-2.2,55.1-2.2s-40.5-20-42.7-30.4c-3-14.4,42.7-39.1,42.7-39.1s-40.6,20.9-50,10.6c-5.5-6,3.5-55.6,3.5-55.6
	s-32.1,51.7-46.6,51.7c-18.3,0-44.6-35.4-44.6-35.4s21.5,39.8,15.6,57.5c-3.7,11.2-60.3,21.1-60.3,21.1s49.2,8.8,51.1,16.4
	c4.1,16.9-15.4,44-15.4,44s22.3-22.2,29.8-16.8C1444.5,1171.1,1444,1215.5,1444,1215.5z"/>
<path class="st0" d="M1408.6,646.7c-3.4,7.3-37.6,7.6-37.6,7.6s32.9,4.6,33.8,14.3c0.9,10.5-9.2,35.5-9.2,35.5s23.1-25.5,29.8-26.6
	c9.3-1.5,23.9,28.6,23.9,28.6s-9.1-26.7-2.2-32.4c4-3.3,32.4,3.8,32.4,3.8s-32.3-17.5-31.9-26.9c0.5-11.7,24-23.1,24-23.1
	s-26.2,12.7-37.4,8.4c-7.1-2.7-25.5-34.8-25.5-34.8S1414.9,633.1,1408.6,646.7z"/>
<path class="st0" d="M445,822.7c10.1-22.4,112.1-23.3,112.1-23.3s-98.3-14.3-100.8-44c-2.7-32.3,27.6-154.4,27.6-154.4
	s-68.9,123.6-89,127c-27.9,4.6-71.4-88.1-71.4-88.1s27.2,82.3,6.6,100.1c-12,10.3-141.9,15.3-141.9,15.3s140.4,27,140.3,55.9
	c-0.1,21.9-62.6,89.3-62.6,89.3s77.8-53.9,102.6-44c21.1,8.4,76,125.3,76,125.3S426.2,864.6,445,822.7z"/>
<path class="st0" d="M897.1,766.4c0,0-1.1-58.9,14.4-61.2c12.3-1.9,29.4,48.7,29.4,48.7s-8.3-41.4-1.3-52.5
	c6.8-10.9,46.1,15.8,46.1,15.8s-31.5-29-33.7-39.4c-3-14.4,24.7-21.1,24.7-21.1s-22.6,2.9-32-7.5c-5.5-6-5.5-37.6-5.5-37.6
	s-14.1,51.7-28.6,51.7c-18.3,0-44.6-62.4-44.6-62.4s12.5,48.8,6.6,66.5c-3.7,11.2-60.3,12.1-60.3,12.1s49.2,8.8,51.1,16.4
	c4.1,16.9-15.4,44-15.4,44s22.3-22.2,29.8-16.8C888.6,731,897.1,766.4,897.1,766.4z"/>
<path class="st0" d="M2895,685.3c0,0,18.8-29.6,30-31.3c8.9-1.4,21.3,28.7,21.3,28.7s-6-25.4-0.9-33.5c5-7.9,33.4,6.9,33.4,6.9
	s-22.8-15.8-24.4-23.3c-2.1-10.4,14-21.2,14-21.2s-19,9.3-25.8,1.8c-4-4.4-4-27.2-4-27.2s-3.7,30.9-14.2,30.9
	c-13.2,0-32.3-45.2-32.3-45.2s9.1,35.4,4.8,48.2c-2.7,8.1-37.2,8.7-37.2,8.7s33.4,8.1,37,12.5C2906.7,653.6,2895,685.3,2895,685.3z"
	/>
<path class="st0" d="M2212.5,1176.4c0,0,26.7-42,42.5-44.4c12.7-1.9,30.2,40.8,30.2,40.8s-8.5-36.1-1.3-47.5
	c7-11.2,47.4,9.8,47.4,9.8s-32.4-22.4-34.6-33.1c-3-14.8,19.9-30,19.9-30s-26.9,13.2-36.6,2.5c-5.6-6.2-5.7-38.6-5.7-38.6
	s-5.2,43.9-20.2,43.9c-18.8,0-45.9-64.2-45.9-64.2s12.9,50.2,6.8,68.4c-3.8,11.5-52.7,12.4-52.7,12.4s47.4,11.6,52.5,17.7
	C2229.1,1131.3,2212.5,1176.4,2212.5,1176.4z"/>
<path class="st0" d="M1247.5,2889.9c0,0-1.6-24.6,3.3-30.3c4-4.5,29,15.8,29,15.8s-17.8-20.4-18.3-27.1
	c-0.5-6.6,24.6-18.7,24.6-18.7s-24.2,5.8-27.8,2.2c-5-5,0.6-23,0.6-23s-8.3,21.8-14.5,20.4c-3.6-0.8-12.2-19.7-12.2-19.7
	s5.2,21.6-0.1,26c-6.6,5.6-27-9.3-27-9.3s13.9,14.4,16.6,23.5c1.7,5.7-13.1,31.7-13.1,31.7s20.5-19.8,24-18.8
	C1242.3,2865.3,1247.5,2889.9,1247.5,2889.9z"/>
<path class="st0" d="M803.7,542.8c7.6,0,34.4-33.3,34.4-33.3s-17,32.6-13.2,39.2c3.8,6.6,27.8,12.3,27.8,12.3s-32.1-1.5-35.9,5.1
	c-3.8,6.6,11.4,37.4,11.4,37.4s-16.9-20.7-24.5-20.7c-7.6,0-28.1,37.8-28.1,37.8s10.7-46.2,6.9-52.7c-3.8-6.6-36.8-6.9-36.8-6.9
	s33-5.7,36.8-12.3c3.8-6.6-12.3-39.2-12.3-39.2S796.1,542.8,803.7,542.8z"/>
<path class="st0" d="M1982,1281c11.1-7.8,25.1-75.3,25.1-75.3s8.8,56.3,21.2,62.1c12.4,5.7,89.4-37.8,89.4-37.8s-75.6,67-74.4,80.5
	c1.2,13.6,46.3,43,46.3,43s-46.1-12.8-57.2-4.9c-11.1,7.9-2.2,84.4-2.2,84.4s-32-69.6-44.4-75.3c-12.4-5.7-115,73-115,73
	s87.5-96.5,86.3-110c-1.2-13.6-49.5-44.7-49.5-44.7S1970.9,1288.8,1982,1281z"/>
<path class="st0" d="M2909.1,1834.3c-1.7-8.7-83.3-35-83.3-35s81,9.7,87.7,3.9c6.7-5.9,1.3-63.4,1.3-63.4s19.8,63,28.2,65.8
	c8.4,2.9,38-16.2,38-16.2s-19.9,24.1-18.2,32.8c1.7,8.7,49.8,32.8,49.8,32.8s-50.1-8.4-56.8-2.6c-6.7,5.9,12.9,88.1,12.9,88.1
	s-34.2-77.9-42.7-80.8c-8.4-2.9-39.9,35.6-39.9,35.6S2910.8,1843.1,2909.1,1834.3z"/>
<path class="st0" d="M2918.7,2534.5c4.5,4,62.1-23.6,62.1-23.6s-50.6,36.4-51.8,42.3c-1.3,5.9,16.2,53,16.2,53s-27.5-44.2-33.2-42.3
	c-5.8,1.9-16.8,32.4-16.8,32.4s3.7-29.3-0.8-33.4c-4.5-4-36.8,7.4-36.8,7.4s27-20.7,28.3-26.7c1.3-5.9-25-24.6-25-24.6
	s32.4,10.4,38.2,8.5c5.8-1.9,14.5-25.9,14.5-25.9S2914.2,2530.5,2918.7,2534.5z"/>
<path class="st0" d="M815.1,1356.9c11.7,0,34.5-79.6,34.5-79.6s-10.7,77.4-3.4,86.6c7.3,9.2,46.4-0.9,46.4-0.9s-37.7,15.1-40.3,26.5
	c-2.6,11.4,23.4,42.3,23.4,42.3s-32.7-31.6-43.3-26.5c-10.6,5.1-17.2,70.7-17.2,70.7s-3.5-52.9-14.1-58
	c-10.6-5.1-49.7,12.2-49.7,12.2s43.5-32.4,40.9-43.9c-2.6-11.4-86.5-23.3-86.5-23.3s70.9,2.1,78.2-7.1c7.3-9.2,1.4-46.8,1.4-46.8
	S803.4,1356.9,815.1,1356.9z"/>
<path class="st0" d="M2919.6,1575.4c9.5,0,16.3-56.9,16.3-56.9s2.2,42.8,8.9,49.5c6.7,6.7,63-13.6,63-13.6s-43.9,33.9-43.4,43.3
	c1.4,25.4,43.4,61.4,43.4,61.4s-58.1-35.6-64.8-28.9s-16.1,46.8-16.1,46.8s2.1-55.1-7.3-55.1s-34.3,64.1-34.3,64.1
	s14.9-57.2,8.2-63.9c-6.7-6.7-63,6.4-63,6.4s65-21.3,65-30.7c0-9.5-55.1-30.7-55.1-30.7s49.1,14,55.8,7.3
	c6.7-6.7-19.9-46.8-19.9-46.8S2910.2,1575.4,2919.6,1575.4z"/>
<path class="st0" d="M1574.5,1632.6c10.9,10.9,84.8-47,84.8-47s-47,52.1-47,67.6c0,15.5,88.8,57.2,88.8,57.2s-90.2-11.6-100.5,0
	c-27.8,31.1-20.8,121.3-20.8,121.3s-26-108.6-41.5-108.6s-72.8,35.5-72.8,35.5s66.3-61.3,55.3-72.3c-10.9-10.9-114,34.5-114,34.5
	s83.5-49,83.5-64.5c0-15.5-80.4-65.5-80.4-65.5s99.9,50.6,110.9,39.7s-28.2-99.4-28.2-99.4s40.6,73.1,56.1,73.1
	c15.5,0,31.1-77.3,31.1-77.3S1563.5,1621.6,1574.5,1632.6z"/>
<path class="st0" d="M2934.1,2808.5c12.7-1.9,10.6-80,10.6-80s12.9,66.1,23.2,73.8c10.4,7.7,88.4-50.2,88.4-50.2s-66,62-66.3,78.7
	c-0.4,22.5,69.5,65.1,69.5,65.1s-69-29.7-76.7-19.4c-7.7,10.4,16.1,116.7,16.1,116.7s-42.9-124.2-55.6-122.3
	c-12.7,1.9-33.4,93.3-33.4,93.3s8.6-80.1-1.7-87.8c-10.4-7.7-117.9,35.5-117.9,35.5s117.7-56,115.8-68.7
	c-1.9-12.7-77.8-12.6-77.8-12.6s66.3-8.8,74-19.1c7.7-10.3-25.1-106.2-25.1-106.2S2921.4,2810.4,2934.1,2808.5z"/>
<path class="st0" d="M1858,1028.5c8.1,4.9,43.5-40.1,43.5-40.1s-20.4,37.7-18.1,46.9c2.2,9.2,60.9,21.1,60.9,21.1
	s-49.8,9.4-54.2,17.8c-12,22.5-0.2,71.7-0.2,71.7s-31.1-60.6-40.3-58.4c-9.2,2.2-38.1,31.6-38.1,31.6s30.5-45.9,22.4-50.9
	c-8.1-4.9-62.7,36.9-62.7,36.9s42.5-41.1,40.2-50.3c-2.2-9.2-38.4-58-38.4-58s47.8,46.4,52.8,38.3s-31.1-54.9-31.1-54.9
	s34.6,37.5,43.8,35.3c9.2-2.2,7.3-50.3,7.3-50.3S1850,1023.6,1858,1028.5z"/>
<path class="st0" d="M1891.2,682.9c0,0,35.4-5.3,36.8,4.1c1.1,7.5-54.3,28.2-54.3,28.2s43.6-11.3,50-6.9c8.9,6.1,7.9,29.7,7.9,29.7
	s8.6-28.7,18.1-31.2c8.4-2.2,50.1,33.1,50.1,33.1s-30.2-36.5-26.5-46.4c1.5-4,56.4-2,56.4-2s-52.3-8.3-56.7-15.9
	c-5.4-9.4,32.2-37.5,32.2-37.5s-38.3,21.1-48.9,17.5c-6.7-2.3-13.1-54.5-13.1-54.5s-0.1,51.1-9.2,53.6c-10,2.7-36.9-6.4-36.9-6.4
	s32.5,15.7,29.3,20.2C1921.7,675.1,1891.2,682.9,1891.2,682.9z"/>
<path class="st0" d="M1989.2,1150.4c0,0,31-34.7,41.3-27.2c8.2,6,30.7,68,30.7,68s-0.9-62.1,5.7-73.5c5.8-10.1,87.4,10.9,87.4,10.9
	s-71.9-33-77.7-45.7c-2.4-5.1,51.3-55.1,51.3-55.1s-57,41.5-68.4,38.4c-14-3.8-5-65.6-5-65.6s-16.3,56-29.6,62.5
	c-8.4,4.1-63.8-39-63.8-39s48,48.3,41.8,59.2c-6.8,12-40.7,28.7-40.7,28.7s45.4-15.9,46.7-8.5
	C2010.5,1114.3,1989.2,1150.4,1989.2,1150.4z"/>
<path class="st0" d="M2442.3,631.3c0,0,19.1,11.8,28.3,6.8c9.2-5,18.3-37.2,18.3-37.2s-1.4,30.9,6.6,33c8,2.1,41.7-25.2,41.7-25.2
	s-29.2,31.9-27,39.9c2.1,8,29.4,5.7,29.4,5.7s-28.6,10-33.6,19.3c-5,9.2,14.9,34.6,14.9,34.6s-26.3-19-35.5-14
	c-9.2,5-18.4,37.2-18.4,37.2s1.4-30.9-6.6-33c-8-2.1-36.3,21.6-36.3,21.6s23.8-28.3,21.6-36.3c-2.1-8-29.4-6.6-29.4-6.6
	s28.6-9.1,33.6-18.3C2455,649.5,2442.3,631.3,2442.3,631.3z"/>
<path class="st0" d="M1641.4,712.1c0,0,14.4-29.1,11.8-39.2c-2.6-10.2-38.7-26.1-38.7-26.1s38.6,8.1,42.7,0.9
	c4.1-7.2-5.1-46.7-5.1-46.7s14.7,36.2,23,36.1c8.3-0.1,30.9-27.1,30.9-27.1s-15.4,30.2-7.7,37.3c7.7,7.1,37.2-5.8,37.2-5.8
	s-24.9,20.7-22.4,30.9c2.6,10.2,49.5,27,49.5,27s-47.6-9-51.7-1.8c-4.1,7.2,11.9,40.6,11.9,40.6s-21.5-34.5-29.8-34.5
	c-8.3,0.1-13.7,26.9-13.7,26.9s-1.8-25.5-9.4-32.6C1662.2,690.8,1641.4,712.1,1641.4,712.1z"/>
<path class="st0" d="M1721.5,1577.7c0,0,54.8-18.6,64.4-34.6c9.6-16-15.8-81.8-15.8-81.8s38.4,58.9,52.7,54.9
	c14.2-4,52.5-65.3,52.5-65.3s-27.1,64.1-16.6,74.5c10.6,10.4,73.1,4.8,73.1,4.8s-57.5,18.7-56.8,37.4c0.7,18.7,54.3,39.6,54.3,39.6
	s-57.6-5.3-67.2,10.8c-9.6,16,28.3,96.5,28.3,96.5s-48.7-71.4-62.9-67.4c-14.2,4-36.2,66.2-36.2,66.2s16.4-70.7,5.9-81.1
	c-10.6-10.4-51.2,16.6-51.2,16.6s29.9-34.3,29.2-53C1774.6,1577.1,1721.5,1577.7,1721.5,1577.7z"/>
<path class="st0" d="M2759.6,604.9c0,0-4.7,31,2.8,36c7.5,5,34.2-2.5,34.2-2.5s-23.6,11.7-21,20.4c2.6,8.7,33.6,13.1,33.6,13.1
	s-31.4,0.7-35,9c-3.6,8.3,17.3,31.7,17.3,31.7s-24.5-19.6-32.6-15.6c-8.1,4-7.1,35.4-7.1,35.4s-6.2-27.2-14.9-29.3
	c-8.8-2.1-28.2,28-28.2,28s13.3-33.8,7.9-41.1c-5.4-7.2-43.3-3.5-43.3-3.5s38.2-11.4,38.8-20.4c0.5-9-22.6-21.1-22.6-21.1
	s23.4,6.5,29.6-0.1c6.2-6.6-12.6-43.8-12.6-43.8s26.2,33.1,35.2,32.1C2750.7,632,2759.6,604.9,2759.6,604.9z"/>
<path class="st0" d="M2117.7,1534.9c0,0-33.7,24.7-31.3,36.5c2.4,11.8,34.6,29.8,34.6,29.8s-33.2-11.2-38.9-0.6
	c-5.7,10.6,19.3,44,19.3,44s-30.2-28.9-41.4-24.4c-11.2,4.4-13.5,46.1-13.5,46.1s-4.6-41.5-16-45.3c-11.4-3.8-40,26.6-40,26.6
	s19.8-31.4,13.5-41.6c-6.3-10.2-52.8-0.2-52.8-0.2s44.3-19.4,46.1-31.2c1.8-11.9-37.4-44.1-37.4-44.1s46.7,25.3,55.7,17.3
	c9-8-1.4-41.2-1.4-41.2s16,28.1,28,27.8c12-0.3,29.3-53.1,29.3-53.1s-6.5,55.8,2.9,63.3C2083.9,1552,2117.7,1534.9,2117.7,1534.9z"
	/>
<path class="st0" d="M2977,1086.3c0,0-26.9,23.6-22.7,30.2c4.2,6.6,36.9,9.4,36.9,9.4s-32.5,1.6-36,9.5
	c-3.5,7.9,52.2,48.9,52.2,48.9s-57.9-30.6-67.4-25.1c-9.6,5.5-6.5,43.2-6.5,43.2s-11.2-42.2-22.3-41.6
	c-11.1,0.6-32.4,44.4-32.4,44.4s12.9-42.2,5.4-46.8c-7.5-4.6-37.9,10.6-37.9,10.6s26.8-20.4,26.4-28c-0.4-7.7-41.9-17.4-41.9-17.4
	s47.3,3.5,54.2-3.6c6.9-7.1-17.2-42.8-17.2-42.8s28.4,31.1,39.4,27.8c11-3.2,18.1-57.8,18.1-57.8s3.4,53.7,13.3,55.9
	C2948.7,1105.4,2977,1086.3,2977,1086.3z"/>
<path class="st0" d="M1220.5,2163.5c0,0-47.5-3-49.7,7.1c-2.2,10.1,25.9,43.5,25.9,43.5s-32.1-29-42.8-24.9
	c-10.7,4.1,3.1,95.2,3.1,95.2s-25.7-83.3-39.8-87.1c-14.2-3.8-46.8,34.6-46.8,34.6s29.1-50.2,18.1-60.2c-11-9.9-72.3,11.3-72.3,11.3
	s51.9-27.5,49.2-38.9c-2.7-11.4-45.7-25.7-45.7-25.7s44.4,6,51.2-1.5c6.9-7.6-23.1-55.8-23.1-55.8s41.2,47.8,54.4,47.6
	c13.3-0.2,24.1-56.4,24.1-56.4s-2.5,56,10.9,63.3c13.4,7.3,71.5-37.4,71.5-37.4s-47.3,53.7-40,65.1
	C1175.9,2154.8,1220.5,2163.5,1220.5,2163.5z"/>
<path class="st0" d="M2276.6,705.1c0,0-31-4.7-36,2.8c-5,7.5,11.6,34.2,11.6,34.2s-20.7-23.6-29.4-21c-8.7,2.6-13.1,51.6-13.1,51.6
	s-0.7-49.4-9-53c-8.3-3.6-31.7,17.3-31.7,17.3s19.6-24.5,15.6-32.6c-4-8.1-53.4,1.9-53.4,1.9s42.5-17,44.6-25.7
	c2.1-8.8-25.3-26.4-25.3-26.4s31.1,9.7,38.4,4.3c7.2-5.4-2.8-57.7-2.8-57.7s20.4,56.3,29.4,56.8c9,0.5,21.1-22.6,21.1-22.6
	s-6.5,23.4,0.1,29.6c6.6,6.2,61.8-30.7,61.8-30.7s-46.6,40.6-45.6,49.6C2254,692.6,2276.6,705.1,2276.6,705.1z"/>
<path class="st0" d="M1202.2,2019.9c0,0-24.7-33.7-36.5-31.3c-11.8,2.4-21.3,43.1-21.3,43.1s2.7-41.7-7.9-47.4
	c-10.6-5.7-61,36.2-61,36.2s45.8-47.2,41.4-58.3c-4.4-11.2-46.1-13.5-46.1-13.5s41.5-4.6,45.3-16c3.8-11.4-52.1-48.5-52.1-48.5
	s55.9,24,66.2,17.7c10.2-6.3,1.1-48.6,1.1-48.6s20.2,38.4,32.1,40.2c11.9,1.8,51.7-56.9,51.7-56.9s-33.7,72.2-25.8,81.1
	c8,9,41.2-1.4,41.2-1.4s-28.1,16-27.8,28c0.3,12,87,29.3,87,29.3s-82.1-5.6-89.6,3.8C1192.7,1986.8,1202.2,2019.9,1202.2,2019.9z"/>
<path class="st0" d="M1780.8,2298.8c0,0,57.6-117.2,40.2-129.2c-17.4-12-98.4,25.4-98.4,25.4s74-47.3,68.4-67.6
	c-5.6-20.3-120-33.1-120-33.1s115.3,0.7,124.1-18.5c8.8-19.2-39-74.8-39-74.8s56.3,47,75.3,37.9c19-9-2-124.8-2-124.8
	s37.6,100,58,105.3c20.4,5.3,98.8-111.8,98.8-111.8s-60,126.3-47.8,143.4c12.2,17.2,134.9-3.7,134.9-3.7s-114.3,45-116,66
	c-1.7,21,105.8,68.4,105.8,68.4s-108.4-34.2-123.2-19.2c-14.8,15,50.7,145.8,50.7,145.8s-92.7-110.8-113.6-108.8
	C1856.1,2201.6,1780.8,2298.8,1780.8,2298.8z"/>
<path class="st0" d="M3026.1,813.1c0,0-11.3,37.6-6,42.9c5.3,5.3,39-9.9,39-9.9s-28.9,17.8-27.8,26c1.1,8.2,23.7,11.1,23.7,11.1
	s-26.7,0.1-30.2,8.1c-3.5,8,14.2,27.9,14.2,27.9s-19.7-17.5-26.5-12.9c-6.8,4.7-1.6,33.1-1.6,33.1s-7.9-24-15.4-24.4
	s-17.6,30.7-17.6,30.7s7.7-35.8,2.4-41.1c-5.3-5.3-30,9.9-30,9.9s23.5-17.8,22.4-26c-1.1-8.2-22.8-11.1-22.8-11.1s22.2-0.1,25.7-8.1
	c3.5-8-14.2-27.9-14.2-27.9s19.7,17.5,26.5,12.9c6.8-4.7,4.3-30.4,4.3-30.4s5.2,24.9,12.7,25.3
	C3012.4,849.6,3026.1,813.1,3026.1,813.1z"/>
<path class="st0" d="M2951.6,771.4c0,0-18.4-6.7-21-3.6c-2.6,3.1,4.8,23.1,4.8,23.1s-8.7-17.1-12.7-16.5c-4,0.6-5.4,14-5.4,14
	s-0.1-15.8-3.9-17.9c-3.9-2.1-13.6,8.4-13.6,8.4s8.6-11.7,6.3-15.7c-2.3-4-16.2-1-16.2-1s11.7-4.7,11.9-9.1c0.2-4.4-15-10.4-15-10.4
	s17.5,4.6,20.1,1.4c2.6-3.1-4.8-17.8-4.8-17.8s8.7,13.9,12.7,13.3c4-0.6,5.4-13.5,5.4-13.5s0.1,13.1,3.9,15.3
	c3.9,2.1,13.6-8.4,13.6-8.4s-8.6,11.7-6.3,15.7s14.9,2.6,14.9,2.6s-12.2,3.1-12.4,7.5C2933.7,763.2,2951.6,771.4,2951.6,771.4z"/>
<path class="st0" d="M1277.8,953.9c0,0,16.4,25.5,24.3,23.8c7.9-1.7,14.3-26.9,14.3-26.9s-4.2,34.4,4,37.8
	c8.2,3.4,24.7-23.4,24.7-23.4s-11.4,21.2-5.6,28.6c5.9,7.4,30.3-2,30.3-2s-26.4,11.4-24.7,20.5c1.7,9.1,27.7,12.5,27.7,12.5
	s-19.3,1.3-22.4,9.2c-3.1,7.9,13.5,28.7,13.5,28.7s-24.3-23-31.1-18.8c-6.8,4.2,2.6,36.3,2.6,36.3s-10.8-31.8-19.2-32.7
	c-8.4-0.9-16,29.1-16,29.1s4.8-26.5-2.5-32.1c-7.3-5.6-25.5,8.1-25.5,8.1c-3.1,3.1,19.9-18.2,15.4-28c-3.9-8.6-28.5-2.5-28.5-2.5
	s22.4-7.6,23.1-16.4c0.7-8.8-20.3-22.6-20.3-22.6s20.8,9.6,26,3.3C1293,980.2,1277.8,953.9,1277.8,953.9z"/>
<path class="st0" d="M2986.3,1314.2c0,0-37.3,31.6-33.5,45.1c3.8,13.5,87.8,32,87.8,32s-84.7-10.3-90.5,2.4
	c-5.8,12.8,26.1,49.8,26.1,49.8s-37.6-31.2-50.3-25.2c-12.7,6.1-12,54.9-12,54.9s-8.7-47.2-22.3-50.7c-13.6-3.5-44.5,34.3-44.5,34.3
	s20.5-38.2,12.4-49.6c-8.2-11.4-61.7,3.1-61.7,3.1s50.2-26.2,51.3-40.2c1.1-14-47.2-48.4-47.2-48.4s56.6,25.7,66.4,15.7
	c9.8-10-5-57-5-57s20.9,31.5,34.9,30.2c14-1.4,29.9-55.4,29.9-55.4s-3.1,65.7,8.5,73.7C2948.2,1336.9,2986.3,1314.2,2986.3,1314.2z"
	/>
<path class="st0" d="M2428,1303.2c0,0-59.7,51.7-53.7,73.8c6,22.1,140.6,52.3,140.6,52.3s-135.6-16.9-144.9,4
	c-9.3,20.9,41.8,81.4,41.8,81.4s-60.2-51.1-80.5-41.2c-20.3,9.9-19.3,89.8-19.3,89.8s-14-77.1-35.7-82.9
	c-21.8-5.7-71.3,56.1-71.3,56.1s32.9-62.5,19.8-81.2c-13.1-18.7-98.8,5.1-98.8,5.1s80.3-42.8,82.1-65.7
	c1.8-22.9-75.6-79.2-75.6-79.2s90.6,42,106.3,25.6c15.8-16.4-7.9-93.1-7.9-93.1s33.5,51.5,55.9,49.3c22.4-2.2,47.9-90.5,47.9-90.5
	s-4.9,107.4,13.7,120.4S2428,1303.2,2428,1303.2z"/>
<path class="st0" d="M1746.8,1202.6c0,0-51.6-49.2-44.8-62.1c5.5-10.3,57.1,9.3,57.1,9.3s-39.3-20.2-44.2-32.5
	c-6.7-16.9,29.6-42.2,29.6-42.2s-33.9,19.4-49.5,12.2c-13.8-6.3-8-56.6-8-56.6s-5.8,43.5-19.8,43.8c-12.6,0.3-44-38-44-38
	s25.4,35.1,21.9,47.8c-1.8,6.4-54.5-18.7-54.5-18.7s44.8,31,43.8,45c-1.3,17.2-54.7,10.5-54.7,10.5s37.6,17.7,48.9,33.4
	c7.1,9.9-4.3,43.3-4.3,43.3s27.8-34.1,42.7-27.4c16.4,7.4,27.6,39.5,27.6,39.5s-5.7-30.7,3.1-32.8
	C1710.3,1173.9,1746.8,1202.6,1746.8,1202.6z"/>
<path class="st0" d="M1093.7,1270.6c0,0,79.3,6.8,82,20.1c2.2,10.6-56.9,25.3-56.9,25.3s48.4-7.1,61.4-1.1
	c12.8,5.9,2.5,47.3,2.5,47.3s23.4-34.8,35.5-36.6c16.8-2.5,45.7,36.7,45.7,36.7s-24.4-34.9-12.3-43c7-4.7,64.9,3,64.9,3
	s-60.4-27.5-60.4-40c0-15.7,41.3-38.3,41.3-38.3s-46.5,18.5-67.2,13.4c-13.1-3.2-24.6-51.8-24.6-51.8s-10.3,42.3-19.1,43.9
	c-19.7,3.5-51.4-13.2-51.4-13.2s26,19.2,19.6,25.6C1145.6,1271.1,1093.7,1270.6,1093.7,1270.6z"/>
<path class="st0" d="M1454.9,2835c-8.5-2.9-8.8-32.2-8.8-32.2s-5.4,28.3-16.7,29c-12.2,0.8-41.4-7.9-41.4-7.9s29.8,19.8,31,25.6
	c1.8,8-33.4,20.5-33.4,20.5s31.2-7.8,37.9-1.9c3.9,3.4-4.4,27.8-4.4,27.8s20.5-27.7,31.4-27.4c13.7,0.4,27,20.6,27,20.6
	s-14.9-22.5-9.8-32.1c3.2-6.1,40.6-21.9,40.6-21.9S1470.7,2840.4,1454.9,2835z"/>
<path class="st0" d="M2366.1,2828.6c0,0,34.6,16.1,36.6,25.7c1.6,7.7-33.6,18.3-33.6,18.3s29.7-5.1,39.1-0.8
	c9.2,4.3-8.1,28.7-8.1,28.7s18.5-19.6,27.3-20.9c12.2-1.8,24.7,12,24.7,12s-10.9-16.3-2.1-22.2c5.1-3.4,31.8-3.4,31.8-3.4
	s-36.1-3.1-36.1-12.2c0-11.4,52.8-27.7,52.8-27.7s-41.3,7.8-56.3,4.1c-9.5-2.3-10.2-31.9-10.2-31.9s-9.5,28.7-14.6,31.8
	C2403.1,2838.6,2366.1,2828.6,2366.1,2828.6z"/>
<path class="st0" d="M723,1966.4c0,0,50.6-19.3,62.3-11.8c9.4,5.9-14.5,52.3-14.5,52.3s24.1-35.3,37.8-40.6
	c13.5-5.2,21.2,36.5,21.2,36.5s-1.8-38.2,5.6-48.5c10.2-14.2,36.7-13.3,36.7-13.3s-27.3-5-24.6-19.8c1.6-8.5,27.9-35.8,27.9-35.8
	s-38.9,33.7-48.1,24.8c-11.6-11.2,23.9-81.2,23.9-81.2s-32.9,49.8-51.4,61.4c-11.7,7.4-42.6-21.1-42.6-21.1s19.8,38,17.9,46.3
	C769.8,1938.5,723,1966.4,723,1966.4z"/>
<path class="st0" d="M504.4,2850.9c0,0,28.7-1.4,35.4,2.8c5.3,3.4-18.5,24.9-18.5,24.9s23.8-15.3,31.6-15.7
	c7.7-0.4,21.9,21.1,21.9,21.1s-6.8-20.8-2.6-23.9c5.8-4.3,26.8,0.5,26.8,0.5s-25.5-7.1-23.9-12.5c0.9-3.1,23-10.5,23-10.5
	s-25.2,4.4-30.4-0.1c-6.5-5.7,10.9-23.2,10.9-23.2s-16.8,12-27.4,14.3c-6.7,1.4-37.1-11.2-37.1-11.2s23.1,17.6,22,20.6
	C533.1,2846.4,504.4,2850.9,504.4,2850.9z"/>
<path class="st0" d="M2704.7,2853.2c0,6.5,38.9,29.6,38.9,29.6s-38.1-14.6-45.8-11.3c-7.7,3.3-14.3,23.9-14.3,23.9
	s1.8-27.6-5.9-30.8c-7.7-3.3-43.7,9.8-43.7,9.8s24.1-14.5,24.1-21.1c0-6.5-44.1-24.1-44.1-24.1s53.9,9.2,61.6,5.9
	c7.7-3.3,8-31.6,8-31.6s6.6,28.3,14.3,31.6c7.7,3.3,45.8-10.6,45.8-10.6S2704.7,2846.7,2704.7,2853.2z"/>
<path class="st0" d="M1774.3,1317.9c9.2,9.6,87.9,21.5,87.9,21.5s-65.8,7.6-72.5,18.2c-6.7,10.6,44.2,76.8,44.2,76.8
	s-78.2-64.9-94.1-63.9c-15.8,1.1-50.3,39.8-50.3,39.8s14.9-39.6,5.7-49.1c-9.2-9.6-98.6-1.9-98.6-1.9s81.3-27.5,88-38.1
	c6.7-10.6-85.3-98.8-85.3-98.8s112.7,75.1,128.5,74.1c15.8-1.1,52.3-42.5,52.3-42.5S1765.1,1308.3,1774.3,1317.9z"/>
<path class="st0" d="M312.2,2840.7c10.2-1.5,40.9-71.5,40.9-71.5s-11.4,69.5-4.5,75.3c6.8,5.7,74.1,1.1,74.1,1.1s-73.6,17-76.9,24.2
	c-3.4,7.2,18.9,32.6,18.9,32.6s-28.2-17.1-38.4-15.6c-10.2,1.5-38.3,42.7-38.3,42.7s9.9-43,3-48.7c-6.8-5.8-102.9,11.1-102.9,11.1
	s91-29.4,94.4-36.6c3.4-7.2-41.6-34.2-41.6-34.2S302,2842.1,312.2,2840.7z"/>
<path class="st0" d="M822,835.2c-4.7,3.9,27.6,53.3,27.6,53.3S807,845.1,800.1,844c-6.9-1.1-62,13.9-62,13.9s51.6-23.6,49.4-28.5
	c-2.2-4.9-37.9-14.4-37.9-14.4s34.3,3.2,39-0.7c4.7-3.9-8.6-31.6-8.6-31.6s24.2,23.2,31.1,24.3c6.9,1.1,28.8-21.4,28.8-21.4
	s-12.1,27.8-10,32.8c2.2,4.9,30.2,12.5,30.2,12.5S826.7,831.3,822,835.2z"/>
<path class="st0" d="M1482.6,1297.5c0,10.1,93,29.6,93,29.6s-90.4-9.2-101.2-2.9c-10.7,6.3,1,39.8,1,39.8s-17.6-32.4-31-34.6
	c-13.4-2.2-49.4,20.1-49.4,20.1s36.9-28.1,30.9-37.2c-5.9-9.1-82.6-14.8-82.6-14.8s61.8-3,67.7-12.1c5.9-9.1-14.2-42.6-14.2-42.6
	s37.9,37.3,51.3,35.1c13.4-2.2,27.3-74.2,27.3-74.2s-2.4,60.9,8.3,67.2c10.7,6.3,54.7,1.2,54.7,1.2S1482.6,1287.4,1482.6,1297.5z"/>
<path class="st0" d="M2540.8,1092.3c2,10.7,85.5,8.9,85.5,8.9s-70.7,10.8-78.9,19.6c-8.2,8.7,53.6,74.5,53.6,74.5
	s-66.3-55.6-84.2-55.8c-24.1-0.3-69.6,58.5-69.6,58.5s31.8-58.1,20.7-64.6c-11.1-6.5-124.8,13.6-124.8,13.6s132.8-36.1,130.7-46.8
	c-2-10.7-99.8-28.2-99.8-28.2s85.7,7.3,93.9-1.4c8.2-8.7-38-99.3-38-99.3s59.8,99.1,73.5,97.5c13.6-1.6,13.4-65.5,13.4-65.5
	s9.4,55.9,20.5,62.3c11.1,6.5,113.6-21.1,113.6-21.1S2538.8,1081.6,2540.8,1092.3z"/>
<path class="st0" d="M830.7,1647.5c-5.7,6.9,46.8,37.4,46.8,37.4s-44-17.5-54.8-15.6c-10.7,1.9-24.6,52.3-24.6,52.3
	s-11-42.7-20.7-46.5c-26.3-10.3-83.8-0.2-83.8-0.2s70.9-26.7,68.2-34.6c-2.6-7.9-36.9-32.7-36.9-32.7s53.7,26.2,59.4,19.2
	c5.7-6.9-43.1-53.8-43.1-53.8s48,36.5,58.7,34.6c10.7-1.9,67.8-33,67.8-33s-54.2,41.1-44.8,45.3c9.4,4.2,64.1-26.7,64.1-26.7
	s-43.8,29.7-41.2,37.6c2.6,7.9,58.8,6.2,58.8,6.2S836.4,1640.6,830.7,1647.5z"/>
<path class="st0" d="M2218.2,2812.6c0,0-14.4,27.5-23.7,21.4c-7.4-4.8,3.9-56.9,3.9-56.9s-13.3,37.4-20.9,38.4
	c-10.4,1.4-31.2-16.6-31.2-16.6s21.3,26.9,18.5,35.1c-2.5,7.3-57.1,9-57.1,9s49.5,6.9,56.4,16.6c2.8,3.9-28.8,39.1-28.8,39.1
	s35.8-28.7,45.2-26c11.5,3.3,16.5,49.1,16.5,49.1s1.7-41.1,10.7-45.4c5.7-2.8,56.5,31.5,56.5,31.5s-46.2-37.8-43.5-45.7
	c2.9-8.7,25.7-19.8,25.7-19.8s-31.8,10.1-34.2,4.5C2208.7,2838.7,2218.2,2812.6,2218.2,2812.6z"/>
<path class="st0" d="M2855.6,2019.4c0,0,40.6,26.6,31.7,35.4c-7.1,7-79.5,26.4-79.5,26.4s72.6-0.8,85.9,4.9c11.8,5-12.8,75-12.8,75
	s38.6-61.7,53.4-66.7c6-2,64.4,44,64.4,44s-48.5-49-44.9-58.8c4.4-12,76.7-4.3,76.7-4.3s-65.4-14-73.1-25.4
	c-4.8-7.2,45.6-54.8,45.6-54.8s-56.4,41.2-69.1,35.9c-14-5.8-33.6-35-33.6-35s18.5,39,9.9,40.1
	C2897.7,2037.7,2855.6,2019.4,2855.6,2019.4z"/>
<path class="st0" d="M1734,2818.7c0,0-13.8,16.4-7.9,24.3s43.5,15.8,43.5,15.8s-36.1-1.2-38.6,5.7c-2.5,6.9,29.5,35.8,29.5,35.8
	s-37.3-25-46.7-23.2c-9.4,1.8-6.7,25.3-6.7,25.3s-11.7-24.6-22.5-28.8c-10.8-4.3-40.4,12.8-40.4,12.8s22.2-22.6,16.3-30.5
	c-5.8-7.9-43.5-15.8-43.5-15.8s36.1,1.2,38.6-5.7c2.5-6.9-25.3-31.2-25.3-31.2s33.1,20.4,42.4,18.6c9.4-1.8,7.7-25.3,7.7-25.3
	s10.7,24.6,21.4,28.8C1712.8,2829.6,1734,2818.7,1734,2818.7z"/>
<path class="st0" d="M1398.3,1621.3c0,0-55.9,4.9-59.7,30.3c-3.8,25.5,51.3,109.8,51.3,109.8s-64.7-69.2-82-61
	c-17.4,8.1-11.8,121.1-11.8,121.1s-22.7-115.6-43.5-129.5c-20.7-14-59.2,34.4-59.2,34.4s23.7-67.3,11.8-95.2
	c-12-27.9-98.6-51.2-98.6-51.2s82.9-0.7,86.7-26.2c3.8-25.5-51.3-109.8-51.3-109.8s64.7,69.2,82,61c17.4-8.1,11-104.7,11-104.7
	s23.5,99.2,44.2,113.1c20.7,14,61.2-32.5,61.2-32.5s-25.7,65.3-13.7,93.2C1338.8,1602,1398.3,1621.3,1398.3,1621.3z"/>
<path class="st0" d="M749.5,2147.9c0,0,34,12.3,45.8,10.1c11.9-2.2,30.5-33.2,30.5-33.2s-9.5,33.1-1,36.6c8.5,3.5,54.6-4.3,54.6-4.3
	s-42.3,12.6-42.2,19.7c0.1,7.1,31.6,26.5,31.6,26.5s-35.3-13.2-43.6-6.6c-8.3,6.6,6.8,31.9,6.8,31.9s-24.2-21.4-36.1-19.2
	c-11.9,2.2-31.6,42.5-31.6,42.5s10.5-40.9,2.1-44.3c-8.4-3.5-47.4,10.2-47.4,10.2s40.4-18.5,40.3-25.6c-0.1-7.1-31.4-11.8-31.4-11.8
	s29.8-1.5,38.1-8.1C774.4,2165.8,749.5,2147.9,749.5,2147.9z"/>
<path class="st0" d="M1116.5,2865.1c0,0-36.2-4.1-42,2.4c-5.8,6.5,3,29.4,3,29.4s-13.7-20.2-23.8-18c-10.1,2.2-15.3,28.9-15.3,28.9
	s-0.8-26.9-10.5-30c-9.7-3.1-37,14.9-37,14.9s22.9-21,18.2-28c-4.7-6.9-41.3-6.1-41.3-6.1s31.7-5.3,34.2-12.8
	c2.5-7.5-32.7-24.2-32.7-24.2s39.5,11.4,48,6.8c8.5-4.6,4.1-37.2,4.1-37.2s13.3,32.8,23.8,33.3c10.5,0.5,24.7-19.4,24.7-19.4
	s-7.5,20.1,0.1,25.4c7.7,5.3,51.2-10.9,51.2-10.9s-38.7,22.5-37.5,30.2C1084.8,2857.4,1116.5,2865.1,1116.5,2865.1z"/>
<path class="st0" d="M845.9,2779.2c0,0-27.6-23.1-35.3-19.5c-7.7,3.6-10.9,31.7-10.9,31.7s-1.9-27.9-11.1-30.9
	c-9.2-3-57.2,44.8-57.2,44.8s35.8-49.7,29.3-57.9c-6.5-8.2-50.5-5.6-50.5-5.6s49.2-9.6,48.6-19.2c-0.7-9.6-51.9-27.8-51.9-27.8
	s49.2,11.1,54.7,4.7c5.4-6.4-12.4-32.5-12.4-32.5s23.8,23,32.8,22.7c9-0.3,20.3-36,20.3-36s-4.1,40.6,4.2,46.6
	c8.3,6,49.9-14.8,49.9-14.8s-36.3,24.4-32.5,33.9c3.8,9.5,67.6,15.5,67.6,15.5s-62.7,2.9-65.3,11.4
	C823.7,2754.9,845.9,2779.2,845.9,2779.2z"/>
<path class="st0" d="M2897.8,2369.1c0,0,5.5-26.6-3.3-30.9c-8.8-4.3-40,9.9-40,9.9s27.5-17.8,24.5-25.2c-3-7.4-60.3-11.3-60.3-11.3
	s57.7-0.6,61.9-7.7c4.2-7.1-20.2-27.2-20.2-27.2s28.6,16.8,38,13.4c9.4-3.5-2.2-45.8-2.2-45.8s19.8,36.5,30.1,38.3
	c10.3,1.8,30.8-21.7,30.8-21.7s-11.3,26.7-5,32.9c6.3,6.2,67.4-2.4,67.4-2.4s-65.7,17.5-66.4,25.3c-0.6,7.7,26.4,18.1,26.4,18.1
	s-27.4-5.5-34.6,0.1c-7.3,5.6,35.8,53.1,35.8,53.1s-47.5-40-57.9-39.1C2912.4,2349.7,2897.8,2369.1,2897.8,2369.1z"/>
<path class="st0" d="M876.6,2477.5c0,0-43.9-9.7-50.1-5.2c-6.2,4.6,11.6,33.5,11.6,33.5s-20.7-24.8-30.3-23.9
	c-9.6,0.9-13,20.3-13,20.3s-0.2-22.9-9.4-25.9c-9.3-3-32.6,12.2-32.6,12.2s20.5-16.9,15-22.8c-5.5-5.9-38.7-1.4-38.7-1.4
	s28.1-6.8,28.5-13.2c0.5-6.4-35.9-15.1-35.9-15.1s41.8,6.6,48,2.1c6.2-4.6-11.6-25.7-11.6-25.7s20.7,20.1,30.3,19.2
	c9.6-0.9,13-19.6,13-19.6s0.1,19,9.4,22.1c9.3,3,32.6-12.2,32.6-12.2s-20.5,16.9-15,22.8c5.5,5.9,35.5,3.7,35.5,3.7
	s-29.1,4.4-29.6,10.9C834,2465.8,876.6,2477.5,876.6,2477.5z"/>
<path class="st0" d="M2447.8,1566c0,0,14.4-36,23.2-35c7,0.8,8.9,31,8.9,31s1.6-23.9,7.1-28.9c5.4-5,30.5,7,30.5,7s-19.2-17-18.8-23
	c0.5-8.3,29.2-15.1,29.2-15.1s-25.4,5.4-29-1.7c-2.1-4.1,10.2-29.9,10.2-29.9s-25.2,23.5-33.2,21.4c-10-2.7-19.2-26-19.2-26
	s5.9,25,0,33.8c-3.7,5.6-36.1,2.6-36.1,2.6s25.6,12.1,25.5,16.5c-0.3,9.8-15,21.8-15,21.8s15.5-8.9,18.8-4.8
	C2454.7,1541.8,2447.8,1566,2447.8,1566z"/>
<path class="st0" d="M2319.4,1652.2c0,0-16.3-7.2-20.1-3.8c-3.8,3.4,1.2,20.4,1.2,20.4s-7.8-16-13-15.9
	c-5.1,0.1-14.9,26.3-14.9,26.3s7-27.1,3-30.3c-4-3.2-19.9,4.8-19.9,4.8s14.4-10.5,13.4-15.5c-1-5-29.5-6.9-29.5-6.9s25.8-3,28.2-7.5
	c2.5-4.5-9.9-18.2-9.9-18.2s15.6,9.9,20.4,8.1c4.8-1.9,7.1-32,7.1-32s2.8,33.8,7.7,35.5c4.8,1.6,14.9-9.2,14.9-9.2s-7,11.9-4.3,16.2
	s38.4-7.6,38.4-7.6s-31.6,15.3-32.3,20.4C2308.9,1642,2319.4,1652.2,2319.4,1652.2z"/>
<path class="st0" d="M1974.9,1707.5c-4.2-2.8,0-19,0-19s-7.2,14.7-13.4,13.4c-6.8-1.4-21.5-10.5-21.5-10.5s13.4,15.3,13.2,18.6
	c-0.2,4.7-21.3,6.3-21.3,6.3s18.2,0.3,21,4.6c1.6,2.5-6.6,14.6-6.6,14.6s15.3-12.1,21.3-10.3c7.4,2.3,11.7,15.3,11.7,15.3
	s-4.8-14.5-0.6-19c2.6-2.9,25.5-5.9,25.5-5.9S1982.8,1712.9,1974.9,1707.5z"/>
<path class="st0" d="M1057.6,2322.5c-1,3.6,16.9,22,16.9,22s-18.7-13.7-23.4-13c-4.7,0.6-11.4,10.9-11.4,10.9s5.1-14.8,1.4-17.8
	c-3.7-2.9-25.4-1.1-25.4-1.1s15.4-4.4,16.3-7.9c1-3.6-20.6-19.8-20.6-19.8s28.2,13,32.8,12.4c4.7-0.6,9.1-16.1,9.1-16.1
	s-0.6,16.5,3.1,19.4c3.7,2.9,26.7,1,26.7,1S1058.5,2319,1057.6,2322.5z"/>
<path class="st0" d="M1652.2,1808.3c0,0,18.3,20.6,12.1,24.1c-4.9,2.8-47.4,2.6-47.4,2.6s39.8,10.4,46.3,15.4
	c5.7,4.5-18.1,39.2-18.1,39.2s30.3-28.1,39.2-28.6c3.6-0.2,28.7,33.7,28.7,33.7s-19.2-34-15.8-38.8c4.2-5.9,42.6,9.1,42.6,9.1
	s-33.7-17.4-36.2-24.8c-1.6-4.7,33.1-23.2,33.1-23.2s-37,14.2-43.2,9.4c-6.8-5.3-13.2-24.1-13.2-24.1s4.3,24.1-0.5,23.4
	C1672.6,1824.6,1652.2,1808.3,1652.2,1808.3z"/>
<path class="st0" d="M1794.6,1960.5c0,0-19.2-7.6-23.4-4.9c-4.1,2.7-2.7,16.5-2.7,16.5s-4.5-13.1-10.3-13.4
	c-5.9-0.3-12.7,13.5-12.7,13.5s3.5-14.9-1.3-18s-22.5,2.6-22.5,2.6s15.7-8.1,14.1-12.6c-1.5-4.5-21.7-9.5-21.7-9.5
	s18.2,1.8,20.6-1.9c2.5-3.8-14.3-18.1-14.3-18.1s19.9,12.1,25.3,10.8c5.3-1.3,7.8-19.7,7.8-19.7s2.4,19.9,8.1,21.8
	c5.7,1.8,16.4-7,16.4-7s-7.1,9.9-3.7,13.9c3.4,4.1,29.6,1.7,29.6,1.7s-24.5,6.6-25,11C1778.5,1951.6,1794.6,1960.5,1794.6,1960.5z"
	/>
<path class="st0" d="M2220.8,1605c0,0-23.2-12.2-27.4-10.6c-4.2,1.6,1.4,20.6,1.4,20.6s-7.9-17.1-13.4-18.1
	c-5.5-0.9-10.4,9.5-10.4,9.5s3.4-12.9-1.4-16c-4.8-3.1-20.2,1.9-20.2,1.9s14.1-6.4,11.9-10.5c-2.2-4.1-21.5-6.7-21.5-6.7
	s16.8,0.5,18.1-3.1c1.2-3.6-17.9-14-17.9-14s22.5,10.1,26.7,8.5s-2.6-16.3-2.6-16.3s8.6,14.5,14.1,15.5c5.5,0.9,10.3-9,10.3-9
	s-2.8,10.7,1.9,13.9s20.2-1.9,20.2-1.9s-14.1,6.4-11.9,10.5c2.2,4.1,19.4,7.5,19.4,7.5s-17.1-1.9-18.3,1.6
	C2198.5,1591.9,2220.8,1605,2220.8,1605z"/>
<path class="st0" d="M1915.4,2894.3c0,0,12.7-25.5,6.7-29.1c-5.9-3.6-43.7,6.7-43.7,6.7s32.3-12,31.1-17.6
	c-1.2-5.6-26.5-7.5-26.5-7.5s29.9-0.1,33.8-5.5c4-5.4-15.9-18.9-15.9-18.9s22,11.9,29.7,8.7c7.6-3.2,1.8-22.4,1.8-22.4
	s8.8,16.3,17.2,16.6c8.4,0.3,19.7-20.8,19.7-20.8s-8.6,24.3-2.7,27.9c5.9,3.6,33.6-6.7,33.6-6.7s-26.3,12-25.1,17.6
	c1.2,5.6,25.5,7.5,25.5,7.5s-24.8,0.1-28.8,5.5c-4,5.4,15.9,18.9,15.9,18.9s-22-11.9-29.7-8.7c-7.6,3.2-4.9,20.6-4.9,20.6
	s-5.8-16.9-14.2-17.2C1930.8,2869.6,1915.4,2894.3,1915.4,2894.3z"/>
<path class="st0" d="M871.1,2967.4c0,0-29.8,14.1-27.8,20.9c2,6.8,31.4,12.3,31.4,12.3s-40.2-3.6-44.1,3.4
	c-3.9,7,27.3,21.2,27.3,21.2s-24.8-9.8-33.4-4.8c-8.7,5,2.3,26,2.3,26s-13.3-22.7-23.9-21.2c-10.6,1.4-14.7,23.7-14.7,23.7
	s-1.5-16.6-10.7-19.2c-9.2-2.6-33.6,11.6-33.6,11.6s26.9-20.9,22-26.7c-4.9-5.9-42.4,2.2-42.4,2.2s37.2-9.2,38.2-16.5
	c1-7.2-34-13.8-34-13.8s31,4.1,37.5-2.2c6.6-6.3-9.5-21.9-9.5-21.9c-3.6-2.6,21.3,17.1,32.8,13.2c10-3.4,2.9-24.4,2.9-24.4
	s8.8,19.2,19.2,19.9c10.3,0.6,26.3-17.4,26.3-17.4s-11.2,17.9-3.9,22.3C840.5,2980.4,871.1,2967.4,871.1,2967.4z"/>
<path class="st0" d="M857.7,1163.8c0,0-36.9-32-52.7-28.8c-15.8,3.2-37.3,75.4-37.3,75.4s12.1-72.7-2.9-77.7
	c-14.9-5-58.2,22.4-58.2,22.4s36.5-32.3,29.4-43.2c-7.1-10.9-64.2-10.3-64.2-10.3s55.1-7.5,59.2-19.2c4.1-11.7-40.1-38.2-40.1-38.2
	s44.6,17.6,58,10.6c13.4-7-3.7-53-3.7-53s30.6,43.1,47,44c16.4,0.9,56.6-40.6,56.6-40.6s-30,48.6-18.3,57
	c11.7,8.5,66.5-4.2,66.5-4.2s-36.8,18-35.2,30c1.6,12,64.7,25.7,64.7,25.7s-76.8-2.6-86.1,7.3C831.2,1131,857.7,1163.8,857.7,1163.8
	z"/>
<path class="st0" d="M2506.7,1925.6c0,0-101.8,7.2-120.5,35.4c-18.6,28.2,128.3,202.6,128.3,202.6s-161.6-161.3-191.1-146.6
	c-29.5,14.7-52.9,119.1-52.9,119.1s6.2-101.6-20.3-107.2c-26.5-5.6-146.1,133.6-146.1,133.6s106.4-146.6,95.2-169.9
	c-11.2-23.3-115.8,2.8-115.8,2.8s92-39.9,101.4-70c9.4-30.1-137.7-126.9-137.7-126.9s162.9,72.5,188.5,49.7
	c25.6-22.8,23.7-143.5,23.7-143.5s27.4,116.2,57.2,111.3c29.8-4.8,92.1-104.6,92.1-104.6s-27.9,81-7.8,96.4
	c20.1,15.4,133.6-57.7,133.6-57.7s-117.3,109.6-116.4,138C2419,1916.5,2506.7,1925.6,2506.7,1925.6z"/>
<path class="st0" d="M1533.7,2274.1c0,0-16.8,51.4-29.7,49.9c-10.3-1.2-16.4-44.6-16.4-44.6s0.5,34.5-7,41.4
	c-10.4,9.5-45.1-10.4-45.1-10.4s29.1,19.8,30,33.2c0.8,11.9-40.7,21.2-40.7,21.2s36.2-7.5,42.2,2.7c5.4,9.2-11.3,42.8-11.3,42.8
	s16.8-28.3,28.1-29.1c5.7-0.4,8.1,45.3,8.1,45.3s5.5-41.4,16.9-44.5c13.9-3.7,30.8,37.5,30.8,37.5s-1.8-32.5,5.7-45.1
	c4.7-7.9,35.4-8.6,35.4-8.6s-38-11.2-38.9-24c-1.1-14.1,19.2-31.1,19.2-31.1s-21.5,12.5-26.7,6.6
	C1526.5,2308.8,1533.7,2274.1,1533.7,2274.1z"/>
<path class="st0" d="M1829,1877.1c0,0,47.4-24.7,56.5-11.7c7.2,10.4-16.8,50-16.8,50s22.5-27.5,33-26c14.5,2.1,28.3,49.6,28.3,49.6
	s-9.6-42.2-1.3-53.5c7.3-10,46,20.8,46,20.8s-33.3-27.4-31.2-41c1.9-12.2,37.3-23.1,37.3-23.1s-31.9,6.7-41.3-3
	c-4.7-4.9,23.8-42.8,23.8-42.8s-31.9,27.3-42.8,19.3c-13.4-9.9,0.9-57.7,0.9-57.7s-20.2,27.1-34.5,30.1c-9,1.9-33.4-25.8-33.4-25.8
	s22.2,43.7,14.5,54.6c-8.5,12-35.7,6.6-35.7,6.6s25.2,10,25.3,19.4C1857.7,1856.6,1829,1877.1,1829,1877.1z"/>
<path class="st0" d="M1002.9,494c0,0,24-118,40.2-115.8c12.9,1.7,18.5,99.1,18.5,99.1s1.3-77.4,11-94.4
	c9.5-16.7,56.5,18.9,56.5,18.9s-36.5-52.5-36.2-72c0.4-27,52.6-52.2,52.6-52.2s-46.2,20.6-53.3-1.8c-4.1-13,16.6-97.9,16.6-97.9
	s-44.7,79.1-59.5,73.1c-18.5-7.6-37-81.7-37-81.7s12.5,80,2.3,109.2c-6.4,18.5-66.2,12.7-66.2,12.7s47.9,36,48,50.3
	c0.2,31.8-26,72.2-26,72.2s27.9-30.5,34.2-17.7C1013.9,414.8,1002.9,494,1002.9,494z"/>
<path class="st0" d="M1326.7,1391.5c-5.9,9-46.1-1.6-46.1-1.6s37.4,16.9,35.8,30.5c-1.8,14.8-20.5,46-20.5,46s34-27.8,42.2-27.2
	c11.4,0.9,20.3,47.1,20.3,47.1s-3.5-39.8,6.2-45.5c5.6-3.3,37.1,15.6,37.1,15.6s-33.2-34.5-30.2-47.3c3.8-16,34.5-24.3,34.5-24.3
	s-34.2,9.2-46.2-0.3c-7.6-6-20.5-56.2-20.5-56.2S1337.8,1374.7,1326.7,1391.5z"/>
<path class="st0" d="M1276.9,477.9c0,0,12.7-105.6,29-103.5c13,1.7,18.5,99.1,18.5,99.1s1.3-77.4,11-94.4
	c9.5-16.7,43.1,47.4,43.1,47.4s-25.2-64.9-24.9-84.4c0.4-27,30.1-27.5,30.1-27.5s-23.6-4.1-30.8-26.6c-4.1-13,3.2-69.4,3.2-69.4
	s-26.4,86.6-41.2,80.5c-18.5-7.6-30.6-130-30.6-130s1.2,92.4-8.9,121.6c-6.4,18.5-64.1-3.4-64.1-3.4s47.9,36,48,50.3
	c0.2,31.8-26,72.2-26,72.2s27.9-30.5,34.2-17.7C1276.6,411.1,1276.9,477.9,1276.9,477.9z"/>
<path class="st0" d="M3123.1,2156c0,0,63.9,36.9,61.7,53.6c-1.8,13.3-85.2,21.1-85.2,21.1s67.9-0.2,85.3,9.8
	c17.1,9.8-37.1,45.8-37.1,45.8s53.4-27.6,73.4-27.3c27.7,0.4,45.4,27.2,45.4,27.2s-12.4-30.4,10.6-37.7c13.3-4.2,71.3,3.3,71.3,3.3
	s-76.2-15.6-70-30.8c7.8-19,133.4-31.5,133.4-31.5s-94.8,1.3-124.8-9.2c-19-6.6-0.4-56.4-0.4-56.4s-40.2,45.4-53.3,49.1
	C3196.6,2183.3,3123.1,2156,3123.1,2156z"/>
<path class="st0" d="M1227.1,1221.5c0,0,30.2-34.9,43.8-33.7c10.9,1,17.3,46.5,17.3,46.5s-0.1-37.1,8-46.6
	c8-9.4,37.4,20.2,37.4,20.2s-22.6-29.1-22.3-40.1c0.3-15.1,22.2-24.8,22.2-24.8s-24.9,6.8-30.8-5.8c-3.5-7.3,2.7-38.9,2.7-38.9
	s-12.7,41.6-25.1,38.2c-15.6-4.2-25.7-72.8-25.7-72.8s1,51.8-7.5,68.2c-5.4,10.3-46.1,0.2-46.1,0.2s37.1,21.9,40.1,29.1
	C1249.5,1181.4,1227.1,1221.5,1227.1,1221.5z"/>
<path class="st0" d="M1441.3,2637.7c0,0,4.8-34.9,12.3-41.2c5.9-5,30.1,31.4,30.1,31.4s-15.6-34.2-14.3-43.7
	c1.2-9.3,34.4-18.2,34.4-18.2s-30.3,0.4-33.6-5.8c-4.5-8.6,7.1-31.9,7.1-31.9s-15.9,27.8-22.9,23.8c-4.1-2.3-9.1-31.4-9.1-31.4
	s0.2,31.8-7.3,36.3c-9.4,5.6-29.5-21.7-29.5-21.7s12.6,24.6,13.3,38.1c0.4,8.5-24.2,40.1-24.2,40.1s29.8-21,33.6-18.5
	C1441.8,2601.7,1441.3,2637.7,1441.3,2637.7z"/>
<path class="st0" d="M1099.2,1662.1c7.3,2,40.7-28.7,40.7-28.7s-23.7,32.6-21.5,41.1c2.2,8.5,24.1,21.2,24.1,21.2
	s-30.7-10.2-35.8-3.7c-5.1,6.5,2.6,45.5,2.6,45.5s-11.7-27.9-19.1-29.9c-7.3-2-35.6,35.5-35.6,35.5s20.6-49.6,18.4-58.1
	c-2.2-8.5-34-17.5-34-17.5s33.2,2.2,38.3-4.3c5.1-6.5-3.1-47.8-3.1-47.8S1091.8,1660.1,1099.2,1662.1z"/>
<path class="st0" d="M1451.3,2208.2c-9.6,4.6-31.6,60.8-31.6,60.8s3.1-51.1-5.1-58.6c-8.2-7.5-73.1,15-73.1,15s67.9-43.3,69.3-55.5
	c1.4-12.1-27.1-47.1-27.1-47.1s32.2,20.5,41.8,15.9c9.6-4.6,16.2-73.4,16.2-73.4s11.9,67.5,20.1,75c8.2,7.5,98.3-40.7,98.3-40.7
	s-81.8,66.8-83.2,78.9c-1.4,12.1,29.2,49.2,29.2,49.2S1460.9,2203.5,1451.3,2208.2z"/>
<path class="st0" d="M2299.8,3196.4c0.3-16.3-76.3-96.9-76.3-96.9s80,50.9,88.1,43.2c8.2-7.7,16.2-112.8,16.2-112.8
	s5.3,120.7,13.2,129.3c7.9,8.6,42.4-13.2,42.4-13.2s-25.9,34.9-26.2,51.2c-0.3,16.3,42.8,79.1,42.8,79.1s-48.9-35.8-57-28.1
	c-8.2,7.7-7.5,162.7-7.5,162.7s-16.5-153.4-24.4-162c-7.9-8.6-48.9,47.2-48.9,47.2S2299.4,3212.7,2299.8,3196.4z"/>
<path class="st0" d="M1549.6,3248.7c4.2,10.6,80-19.2,80-19.2s-69.8,51.5-72.9,63.2c-3.1,11.7,4.6,118.2,4.6,118.2
	s-20.4-105.2-27.7-104.1c-7.3,1.1-28.7,59.4-28.7,59.4s12.4-59.3,8.2-69.9c-4.2-10.6-45.5-2.4-45.5-2.4s37.6-30.2,40.7-41.9
	c3.1-11.7-22.8-63.3-22.8-63.3s35.5,37.3,42.8,36.1c7.3-1.1,24.2-46.9,24.2-46.9S1545.3,3238.1,1549.6,3248.7z"/>
<path class="st0" d="M1271.9,2579.2c-9.7-2.6-43.8,69.8-43.8,69.8s23.7-73,19.4-83.6c-4.3-10.6-38.6-9.6-38.6-9.6
	s34.2-6.2,38.5-16.8c4.4-10.6-11.3-46.5-11.3-46.5s21.1,38.1,30.8,35.5c9.7-2.6,27.8-65,27.8-65s-7.2,52.3,0.5,59.7
	c7.8,7.3,43.5-0.7,43.5-0.7s-42.3,21.8-42.3,33.5c0,11.7,67.2,42.2,67.2,42.2s-58.4-18-66.2-10.7c-7.8,7.3-10.1,45.3-10.1,45.3
	S1281.7,2581.9,1271.9,2579.2z"/>
<path class="st0" d="M3079.2,3225c9.6,3.9,29.9-94.9,29.9-94.9s-7.8,77.4-2.6,92.1c5.2,14.7,67.2,1.7,67.2,1.7s-52.6,42.5-54.2,59.5
	c-4.5,46,29.6,127.6,29.6,127.6s-50.6-87.7-59-78.5c-8.4,9.2-27.3,76.9-27.3,76.9s15.1-97.5,5.5-101.5
	c-9.6-3.9-49.9,100.3-49.9,100.3s28.6-96,23.4-110.7c-5.2-14.7-65.5-14.5-65.5-14.5s71-11.2,73.2-28.1c2.2-16.9-48.7-77.7-48.7-77.7
	s46.6,45.3,54.9,36.1c8.4-9.2-9.3-91.8-9.3-91.8S3069.6,3221.1,3079.2,3225z"/>
<path class="st0" d="M1767.9,340.2c-6.4-11.5-72.6,23.4-72.6,23.4s44.8-35.2,47.5-48.4c2.7-13.2-57.3-66.3-57.3-66.3
	s66.4,27.7,76.2,19.8c26.5-21.1,37.1-99.4,37.1-99.4s0.7,97.8,12.4,100.8c11.7,3.1,61.5-16,61.5-16s-61,39.3-54.7,50.8
	c6.4,11.5,92.6-6.9,92.6-6.9s-72,25.3-74.7,38.5c-2.7,13.2,49.5,71.8,49.5,71.8s-66.9-62.9-77.2-55.7c-10.2,7.2,4,90.4,4,90.4
	s-18-70.4-29.7-73.4c-11.7-3.1-37.1,59.8-37.1,59.8S1774.3,351.7,1767.9,340.2z"/>
<path class="st0" d="M3066.4,302c13.4,1.2,29.5-88.5,29.5-88.5s-2.5,78.9,6.2,90.4c8.7,11.5,101.6-33.9,101.6-33.9
	s-81.5,53.4-85.8,72.4c-5.7,25.6,55.2,92.7,55.2,92.7s-63.1-52.2-73.3-42.4c-10.2,9.8-11,137.5-11,137.5s-14.4-153.1-27.8-154.3
	c-13.4-1.2-55.9,97.7-55.9,97.7s27.6-89.2,18.9-100.7c-8.7-11.5-128.1,9.4-128.1,9.4s132.6-32.8,133.7-47.9
	c1.1-15.1-76-34.9-76-34.9s69.4,7.5,79.6-2.3c10.2-9.8-0.5-127.9-0.5-127.9S3053,300.8,3066.4,302z"/>
<path class="st0" d="M2566.9,276.5c10,11,76-48.6,76-48.6s-41.8,53.4-41.7,69c0.2,15.7,80.6,56.9,80.6,56.9s-74.7-3.4-83.9,8.4
	c-24.7,31.9-24.2,115.9-24.2,115.9s-24.6-109.8-38.5-109.6c-14,0.2-65.3,36.9-65.3,36.9s59.1-62.9,49.1-73.9
	c-10-11-102.4,36.2-102.4,36.2s74.8-50.6,74.6-66.3c-0.2-15.7-35.9-108.3-35.9-108.3s53.4,93,63.2,81.7
	c9.8-11.2-26.4-100.4-26.4-100.4s37.4,73.6,51.3,73.4c14-0.2,27.2-78.7,27.2-78.7S2556.9,265.5,2566.9,276.5z"/>
<path class="st0" d="M1213.8,3203.1c0,0,52.7,7.3,51.6,32c-0.9,19.7-87.5,39.5-87.5,39.5s66.4-3.2,74.3,11.8
	c10.8,20.7,1.5,79.8,1.5,79.8s21.9-67.6,36.4-68.4c12.9-0.7,61.1,113,61.1,113s-31.3-110.2-22.7-133c3.5-9.2,81.9,27.9,81.9,27.9
	s-72.5-51.5-76.3-73.5c-4.7-27,58.8-76,58.8-76s-62.2,30.9-76.2,15.6c-8.8-9.7-0.8-145.8-0.8-145.8s-17.2,129.2-31.1,130.2
	c-15.2,1.1-50.9-37.7-50.9-37.7s41.5,58.7,35.4,68.4C1260.3,3201.2,1213.8,3203.1,1213.8,3203.1z"/>
<path class="st0" d="M1442.6,2396.7c0,0-29.1,24.1-35.4,15.4c-5-6.9-11.2-65.8-11.2-65.8s-10,54.6-16.9,63.2
	c-6.1,7.6-63.2-27.3-63.2-27.3s47.9,43.5,50,55.8c0.9,5-47.7,37.9-47.7,37.9s49.6-24.8,57.6-19.8c9.8,6.1-7.6,58.5-7.6,58.5
	s21.8-45.7,32.8-48.8c7-1.9,40.8,47.1,40.8,47.1s-27.4-52-21-60.3c7.1-9.1,35.3-16.9,35.3-16.9s-36.6,4.7-36.2-2
	C1420.4,2424,1442.6,2396.7,1442.6,2396.7z"/>
<path class="st0" d="M3362.2,1215.1c0,0-41,23.5-33.7,38.4c7.3,14.9,83.4,38.8,83.4,38.8s-77.4-12.3-87.5-1.5
	c-10.1,10.8,39.4,68.4,39.4,68.4s-63.8-52.6-85.3-52.2c-21.5,0.4-31.7,40.4-31.7,40.4s-8.7-44.5-29.1-54.7
	c-20.4-10.3-96.3,9.9-96.3,9.9s63.5-31.5,56.2-46.4c-7.3-14.9-83.4-38.8-83.4-38.8s77.4,12.3,87.5,1.5
	c10.1-10.8-33.5-59.5-33.5-59.5s57.8,43.6,79.3,43.2c21.5-0.4,34-40.1,34-40.1s6.4,44.2,26.8,54.4
	C3308.7,1227.3,3362.2,1215.1,3362.2,1215.1z"/>
<path class="st0" d="M2739.3,444.4c0,0,30.3-65.2,30-92.4c-0.3-27.2-47-88.8-47-88.8s52.8,43.2,61.1,27.2
	c8.2-15.9,8.3-121.2,8.3-121.2s9.1,100.2,21,104.8c12,4.7,53.4-50.5,53.4-50.5s-32.2,67.4-23.5,90c8.7,22.5,55.5,7,55.5,7
	s-42.8,37.9-42.5,65.1c0.3,27.2,62.2,97.4,62.2,97.4s-65.5-50.7-73.7-34.8c-8.2,15.9,3.6,109.7,3.6,109.7s-19.5-100.1-31.4-104.7
	c-12-4.7-28.7,60-28.7,60s6-65.5-2.7-88.1C2776.3,402.7,2739.3,444.4,2739.3,444.4z"/>
<path class="st0" d="M1977,2584.5c0,0-44,5.2-53.9,17.3c-9.9,12.1-2.3,74.8-2.3,74.8s-18.5-59.4-29.8-58.8
	c-11.3,0.6-50.4,46.5-50.4,46.5s31.3-50.7,25.2-61.9c-6.1-11.2-53.7-19-53.7-19s46.1-4.7,48.8-21.2c2.7-16.5-33.6-45.7-33.6-45.7
	s42,16.3,51.9,4.2c9.9-12.1-4.5-90.3-4.5-90.3s24,72.4,35.3,71.8c11.3-0.6,38.3-50.7,38.3-50.7s-24.4,58.6-18.4,69.9
	c6.1,11.2,41-4.1,41-4.1s-28.2,24-30.9,40.5C1937.4,2574.4,1977,2584.5,1977,2584.5z"/>
<path class="st0" d="M3370.8,1783.2c0,0-75.7-17.1-92.7-8c-17,9.2-13.6,50-13.6,50s-15.8-37.8-39.2-37c-23.4,0.8-52.9,44-52.9,44
	s16.6-45.4-2.3-53.3c-18.9-7.9-90.3,14.4-90.3,14.4s64-28.7,58.5-41.7c-5.5-13-85.4-22-85.4-22s72.4,0.2,82.8-11.7
	c10.5-11.9-54.3-49.8-54.3-49.8s77.9,30.3,99.4,25c21.5-5.3,34.3-61.1,34.3-61.1s6.5,58.8,29,62.6c22.5,3.8,66.7-25.5,66.7-25.5
	s-30,31.5-17.1,42.6c12.9,11.1,118.3-3.6,118.3-3.6s-99.2,26.7-101.8,39.9C3307.4,1761.4,3370.8,1783.2,3370.8,1783.2z"/>
<path class="st0" d="M2079.1,2452.2c0,0,29.3-14.8,29.6-25.6c0.2-10.8-20.6-33.1-20.6-33.1s22.8,16.5,28.9,8.4
	c6.1-8.1-6.8-42.4-6.8-42.4s17.5,31.4,26.6,29.8c9.1-1.6,18-37.6,18-37.6s-3.7,37.3,4.1,42.9c7.8,5.6,34.4-15.2,34.4-15.2
	s-20.1,23.5-17.2,33.7c2.9,10.2,39.3,10.9,39.3,10.9s-36.4,8-39.7,18c-3.4,10,20.3,46.2,20.3,46.2s-30.5-31.6-38.5-26.4
	c-8.1,5.2-6.1,36.3-6.1,36.3s-7-27.9-16.1-30c-9-2.1-31,40.6-31,40.6s14.5-47.6,8.7-56C2107.3,2444,2079.1,2452.2,2079.1,2452.2z"/>
<path class="st0" d="M3404,3221.3c0,0-32.8,31.1-30.1,44.6c2.7,13.5,35.2,32,35.2,32s-33.3-10.5-38.7,2.1
	c-5.4,12.7,41.5,109,41.5,109s-51.6-78.7-62.6-72.7c-11,5.9-16.8,74.6-16.8,74.6s-1.5-79.9-12.9-83.5c-11.4-3.6-43.3,66-43.3,66
	s23-70,16.5-81.4c-6.5-11.4-41,3.3-41,3.3s32-25.3,33.4-39.2c1.4-13.9-38.4-48.3-38.4-48.3s47.2,25.8,55.9,16
	c8.7-9.9-7.4-83.5-7.4-83.5s21.6,67.3,33.5,66.1c11.9-1.3,31.9-95.9,31.9-95.9s-9.2,97.4,0.4,105.3
	C3370.8,3243.7,3404,3221.3,3404,3221.3z"/>
<path class="st0" d="M1455.5,1421.2c0,0,29,10.2,31.8,3.2c2.8-7-9.8-36-9.8-36s15.7,26.5,22.9,25.3c7.2-1.2,11.7-69.8,11.7-69.8
	s4,65,12.2,70.1c8.2,5.1,33.9-17.3,33.9-17.3s-25.2,31.6-19.8,40.7c5.4,9.1,46.4,3.9,46.4,3.9s-36.1,11.3-36,20.1
	c0,8.8,24.6,26.4,24.6,26.4s-26.6-11.9-32-7.5c-5.4,4.4,6.3,44.5,6.3,44.5s-18.7-41.8-26.9-43.8c-8.2-2.1-23,37-23,37
	s9.6-40.4,2.3-47.9c-7.3-7.6-49.6,15.2-49.6,15.2s37-31.1,34.1-40.7C1481.9,1435.1,1455.5,1421.2,1455.5,1421.2z"/>
<path class="st0" d="M2643.3,3326.6c0,0-43-19.3-52.7-9c-9.7,10.3,5.2,59.7,5.2,59.7s-22-45.9-35.3-45
	c-13.3,0.9-36.1,78.6-36.1,78.6s15.4-80.2,4.7-89.1c-10.7-8.9-51.3,16.2-51.3,16.2s36.4-32.3,33.2-46.8
	c-3.1-14.6-77.5-16.9-77.5-16.9s66.7-11.6,72.7-25c5.9-13.4-27.6-52.1-27.6-52.1s41.6,27.3,53.8,21.3c12.2-6,15.2-94.4,15.2-94.4
	s10.6,98.6,23.4,102.9c12.8,4.2,37.9-28.7,37.9-28.7s-17.1,35.5-9.7,48c7.4,12.5,99.1-26.5,99.1-26.5s-80.6,48.3-82.1,63.2
	C2615,3297.9,2643.3,3326.6,2643.3,3326.6z"/>
<path class="st0" d="M2056.4,2496c0,0,10.5,28.7,18.1,28.9c7.6,0.2,19.4-27.8,19.4-27.8s-7.6,29.9-1.9,35.8
	c5.7,5.9,42.9-16.1,42.9-16.1s-35.1,26.6-34,35.5c1.1,8.9,26.6,17.6,26.6,17.6s-26.4-3.6-30.3,4c-4,7.7,25.3,44,25.3,44
	s-31.2-26.9-38.4-24c-7.2,2.9-7.6,35.2-7.6,35.2s-7-31.3-14.1-34.6c-7.1-3.3-40.2,32.7-40.2,32.7s31.2-46.8,27.6-54.7
	c-3.6-7.9-25.7-5.9-25.7-5.9s19.7-6.9,21.2-15.7c1.5-8.8-49.7-36-49.7-36s50,17.9,56,12.3C2057.6,2521.6,2056.4,2496,2056.4,2496z"
	/>
<path class="st0" d="M2570.1,1596.6c0,0-19.3,39.7-15.4,47.2c3.9,7.4,39.9-1,39.9-1s-31.9,12.6-32.6,22.2
	c-0.8,9.6,20.4,18.8,20.4,18.8s-25.8-6.9-31,1.2s7.5,35.4,7.5,35.4s-15.1-25.1-22.7-21.6c-7.6,3.5-9,37.2-9,37.2s-2.2-29.3-9.4-31.8
	c-7.2-2.4-23.9,30.3-23.9,30.3s15.4-38.6,11.5-46.1c-3.9-7.4-31.2,3.4-31.2,3.4s26.6-14,27.4-23.6s-19.5-18.6-19.5-18.6
	s21.4,5.7,26.6-2.4c5.2-8.1-7.5-35.4-7.5-35.4s15.1,25.1,22.7,21.6c7.6-3.5,11-33.4,11-33.4s-0.6,29.6,6.6,32.1
	C2548.7,1634.5,2570.1,1596.6,2570.1,1596.6z"/>
<path class="st0" d="M2537.9,1315.7c0,0-23-17.6-27.6-13.5c-4.6,4.1-0.7,39-0.7,39s-6.5-30.8-12.1-31.2
	c-5.7-0.5-11.9,20.6-11.9,20.6s4.9-25.5,0.3-30.3c-4.7-4.8-21.3,8.5-21.3,8.5s15.4-15.6,13.6-23c-1.8-7.4-21.8-7.6-21.8-7.6
	s17.5-3.2,19.2-10.2c1.7-7.1-17.3-22.4-17.3-22.4s22.5,13.9,27,9.8c4.5-4.1-1-30.4-1-30.4s7.5,25.6,13.2,26.1
	c5.7,0.5,11.7-19.7,11.7-19.7s-4.1,21.2,0.6,26c4.7,4.8,21.3-8.5,21.3-8.5s-15.4,15.6-13.6,23c1.8,7.4,19.5,9.7,19.5,9.7
	s-17.6,0.4-19.3,7.5C2516,1296,2537.9,1315.7,2537.9,1315.7z"/>
<path class="st0" d="M1642.3,1933.2c0,0,8.7,28.5,15.6,28.6c6.9,0.1,17-23,17-23s-10.1,32.6-3.9,37.7c6.2,5.1,24.9-17.2,24.9-17.2
	s-13.6,18.1-10.1,26.6c3.4,8.5,25.5,4.9,25.5,4.9s-24.1,5.2-24.4,14.4c-0.4,9.2,20.5,18.5,20.5,18.5s-16.3-3.1-20.3,3.9
	c-4.1,7,5.7,31.1,5.7,31.1s-15.7-27.9-22.2-25.4c-6.5,2.5-4.8,35.9-4.8,35.9s-2.8-33.4-9.6-36.2c-6.8-2.7-18.9,24.7-18.9,24.7
	s9-24.7,4-31.9c-5-7.1-22.7,2.1-22.7,2.1c-3.1,2.3,20-13.3,18.1-23.9c-1.6-9.3-23.1-8.9-23.1-8.9s20-2.3,22.3-10.8
	c2.3-8.4-12.5-26.5-12.5-26.5s15.4,14.1,20.9,9.1C1649.8,1962.2,1642.3,1933.2,1642.3,1933.2z"/>
<path class="st0" d="M2908.6,3156.6c0,0-45.3,41-44.6,66.8c0.6,25.8,81.7,93.4,81.7,93.4s-83.6-53.5-92.5-33
	c-8.9,20.5,14.8,99.8,14.8,99.8s-30.8-71.3-45.1-65.8c-14.3,5.6-25.1,93.2-25.1,93.2s2.2-87.9-10.8-99.8c-13-11.9-53.3,43-53.3,43
	s29.8-59.8,24.2-83.6c-5.6-23.8-63.4-19.9-63.4-19.9s57.1-26.1,61.5-50.6c4.4-24.6-36.6-106-36.6-106s51.4,69.3,63.8,55.5
	c12.3-13.8,8.3-103.8,8.3-103.8s13.8,65,28.4,68.3c14.5,3.4,43.4-86.6,43.4-86.6s-18.5,116.1-8.6,135.1
	C2864.5,3181.4,2908.6,3156.6,2908.6,3156.6z"/>
<path class="st0" d="M1551.9,2493.9c0,0,30,53.5,22.7,63.5c-5.8,7.9-40.9-19.7-40.9-19.7s25.8,25.7,27.3,37.4
	c2.1,16.2-29.4,31-29.4,31s28.6-10.1,39-0.7c9.2,8.3-3.8,51.2-3.8,51.2s11.8-36.9,22.3-34.3c9.4,2.3,26.3,42.2,26.3,42.2
	s-12.9-35.9-8.1-46.3c2.4-5.2,37.4,27.4,37.4,27.4s-28-36.2-24.9-48.2c3.9-14.8,42.6,1.9,42.6,1.9s-25-23.1-30.7-39.1
	c-3.6-10.1,10.7-37,10.7-37s-26.6,24.2-36.5,15.4c-10.9-9.8-13.8-40.1-13.8-40.1s-1.1,28.1-7.9,28.1
	C1574.1,2526.4,1551.9,2493.9,1551.9,2493.9z"/>
<path class="st0" d="M1807.4,2570.4c0,0-48.1-18.3-47.9-28.4c0.2-8.1,38.8-8.8,38.8-8.8s-31-3-38.1-9.5c-7.1-6.4,5.2-34.9,5.2-34.9
	s-19.5,21.4-27.3,20.7c-10.8-1-23-34.4-23-34.4s10.1,29.5,1.5,33.3c-5,2.2-39.8-13.1-39.8-13.1s33.5,30.2,31.7,39.3
	c-2.3,11.4-31.1,20.9-31.1,20.9s31.4-5.6,43.5,1.6c7.6,4.5,7.8,41.8,7.8,41.8s12.4-29,18.1-28.7c12.7,0.8,29.9,18.3,29.9,18.3
	s-13.3-18.3-8.5-21.9C1775.4,2561.3,1807.4,2570.4,1807.4,2570.4z"/>
<path class="st0" d="M1135.2,2584.8c-9.3-6.8-1.6-47.8-1.6-47.8s-14.2,37.7-27.8,35.1c-14.8-2.9-47-24.4-47-24.4
	s29.9,37.3,29.8,45.8c-0.1,11.8-45.3,17.9-45.3,17.9s39.2-0.9,45.5,9.6c3.7,6.1-12.9,37.4-12.9,37.4s31.9-32.1,44.8-28.1
	c16.2,5.1,26.4,37.5,26.4,37.5s-11.5-36.2-2.9-48c5.4-7.5,54.3-17.4,54.3-17.4S1152.5,2597.5,1135.2,2584.8z"/>
<path class="st0" d="M2454.1,1962.7c0,0,29.8,27.4,29.6,38.8c-0.2,9.1-36.5,12-36.5,12s29.8,2,38,9.4c8,7.3-14.2,30.4-14.2,30.4
	s22.2-17.4,31-16.6c12.2,1.1,21.2,20.1,21.2,20.1s-6.8-21.4,2.9-25.7c5.7-2.5,31.5,4.4,31.5,4.4s-34.2-13.1-32.2-23.4
	c2.6-12.9,57.2-17.6,57.2-17.6s-41.6-2-55.3-10.1c-8.6-5.1-2.7-38.9-2.7-38.9s-15.6,30.1-21.2,32.2
	C2487.7,1983.9,2454.1,1962.7,2454.1,1962.7z"/>
<path class="st0" d="M2481.4,1628.6c0,0-45.6,7.4-53.9-2.5c-6.6-7.9,22-47.7,22-47.7s-26.7,29-39.1,31.1
	c-12.2,2-10.6-40.4-10.6-40.4s-5.9,37.6-13.9,46c-11.2,11.6-32.9,4.7-32.9,4.7s21.7,11.1,16.6,24.8c-2.9,8-30,28.6-30,28.6
	s38.7-24.1,44.6-13.3c7.4,13.6-35.4,73.7-35.4,73.7s36.8-41.1,54.4-48.3c11.1-4.5,31.2,30.2,31.2,30.2s-9.2-41.5-6-49.1
	C2437.2,1645.2,2481.4,1628.6,2481.4,1628.6z"/>
<path class="st0" d="M2488.4,2362.5c0,0,34.5,7.3,41.2,15.4c5.3,6.4-28.8,28.8-28.8,28.8s32.5-13.7,41.9-11.7
	c9.2,1.9,20.2,36.6,20.2,36.6s-2.4-31.2,3.4-34.1c8.1-4.1,31.7,9.4,31.7,9.4s-28.3-18.2-24.9-25.1c1.9-4,30.2-7.2,30.2-7.2
	s-31.1-2-36-10c-6.2-10,19.3-28.8,19.3-28.8s-23.3,11.3-36.5,11c-8.3-0.1-40.9-27.6-40.9-27.6s22.6,32.1,20.5,35.8
	C2523.7,2365.5,2488.4,2362.5,2488.4,2362.5z"/>
<path class="st0" d="M2084.5,1925.3c-1.5,7.4,30.9,43.8,30.9,43.8s-33.6-26.6-41.7-24.9c-8.2,1.7-19.2,23.4-19.2,23.4
	s7.9-30.8,1.2-36.6c-6.7-5.7-44.4-0.4-44.4-0.4s26.6-10.2,28-17.6c1.5-7.4-37.2-39-37.2-39s50,24.6,58.2,22.9
	c8.2-1.7,14.8-33.8,14.8-33.8s0.1,33.9,6.8,39.7c6.7,5.7,46.6,0,46.6,0S2085.9,1917.9,2084.5,1925.3z"/>
<path class="st0" d="M1612.4,2217.9c-5.2-10.2-61.8-36.7-61.8-36.7s50.4,6.7,57.2-1.3c6.8-7.9-19.7-76.2-19.7-76.2
	s47.1,72.7,59.1,75c12,2.3,44.3-24.7,44.3-24.7s-17.9,31.7-12.7,41.9c5.2,10.2,73.1,21.6,73.1,21.6s-65.3,7.6-72.1,15.5
	c-6.8,7.9,46.6,103.8,46.6,103.8s-71-88.6-83-90.9c-12-2.3-46.3,26.6-46.3,26.6S1617.6,2228.2,1612.4,2217.9z"/>
<path class="st0" d="M2394.2,2579.8c8.7,0.9,47.6-60.4,47.6-60.4s-22.8,65.2-18.2,72.3c4.6,7.1,61.2,17.7,61.2,17.7
	s-64.2,0-68.4,6.3c-4.2,6.3,9.4,36.1,9.4,36.1s-20.1-23-28.8-23.8c-8.7-0.9-39.9,33-39.9,33s16.4-39.7,11.8-46.8
	c-4.6-7.1-87.4-12.4-87.4-12.4s81.1-8.1,85.2-14.4c4.2-6.3-27.9-42.7-27.9-42.7S2385.5,2579,2394.2,2579.8z"/>
<path class="st0" d="M1313.8,2106.1c-5.4,3.1,14.7,67.8,14.7,67.8s-31.4-60.5-37.8-63.5c-6.4-3-63-0.5-63-0.5s55.1-13.2,54.1-19.4
	c-1-6.2-33.4-26.3-33.4-26.3s32.4,12.6,37.8,9.5c5.4-3.1-1.3-38.1-1.3-38.1s18.2,32.7,24.7,35.7c6.4,3,32.6-16.8,32.6-16.8
	s-18,28.4-16.9,34.6c1,6.2,26.4,22.1,26.4,22.1S1319.3,2103,1313.8,2106.1z"/>
<path class="st0" d="M1646,2400.9c1.4-7.3-53.3-37.2-53.3-37.2s54.7,21.9,62.2,19.2c7.5-2.8,5.1-29.2,5.1-29.2s6.3,26.5,14.2,30.4
	c8,3.9,33.5-6.3,33.5-6.3s-26.9,14.2-24.5,21.8c2.4,7.6,49,24.7,49,24.7s-38.7-8.2-43.7-2.6c-5,5.6,2.7,33.4,2.7,33.4
	s-18.1-33.6-26.7-34.2c-8.6-0.6-27.5,49.4-27.5,49.4s10.2-43.9,4.5-50.3c-5.7-6.4-33.7-10.1-33.7-10.1S1644.6,2408.3,1646,2400.9z"
	/>
<path class="st0" d="M3244.3,2894.5c-12.8-0.5-32.8,84.7-32.8,84.7s6.3-74.4-1.5-84.7c-7.8-10.4-99.2,37-99.2,37s81-54.3,86-72.4
	c6.7-24.4-48.4-84.4-48.4-84.4s58,45.9,68.3,36.2c10.3-9.7,17.4-129.9,17.4-129.9s6.2,143.3,19,143.8c12.8,0.5,58.5-94.7,58.5-94.7
	s-30.9,85.3-23.1,95.6c7.8,10.4,123.5-15.2,123.5-15.2s-129,37.5-130.8,51.7c-1.8,14.2,71.3,29,71.3,29s-66.3-3.6-76.6,6.1
	c-10.3,9.7-5.9,120.3-5.9,120.3S3257.1,2895,3244.3,2894.5z"/>
<path class="st0" d="M3266.3,288.2c7.5-10-38.8-86.1-38.8-86.1s40.6,49.4,51.9,50.4c11.3,1,37.3-83.2,37.3-83.2s1.1,80.9,10.1,91.7
	c24.2,29.2,85,35,85,35s-78.2,18.4-77.4,33.6c0.8,15.2,29.8,73.6,29.8,73.6s-48.4-68.9-55.8-58.9c-7.5,10,31.1,113.9,31.1,113.9
	s-40.2-85-51.5-86c-11.3-1-76.6,30.9-76.6,30.9s64.7-51,56.1-62.4c-8.6-11.4-71.4,21.2-71.4,21.2s51.5-35,50.7-50.2
	c-0.8-15.2-58.2-35.5-58.2-35.5S3258.9,298.2,3266.3,288.2z"/>
<path class="st0" d="M1088.5,1324.3c0,0-20,27.4-27.7,18.1c-6.1-7.4,16.5-63.6,16.5-63.6s-21.2,38.9-28.7,38.1
	c-10.3-1.1-26.4-27.1-26.4-27.1s14.6,36.1,10,44.7c-4.1,7.6-57.2-4.8-57.2-4.8s46.3,20.8,50.8,33.6c1.8,5.2-36.5,36.8-36.5,36.8
	s41-23.2,49.4-17.6c10.3,6.8,5,60.1,5,60.1s10.8-46.2,20.5-48.8c6.1-1.6,47.6,50.6,47.6,50.6s-36.2-55-31.9-63.3
	c4.8-9.1,29.3-15.8,29.3-15.8s-33,3.1-34.1-3.8C1073.5,1351.5,1088.5,1324.3,1088.5,1324.3z"/>
<path class="st0" d="M2006.5,3139.1c0,0,34.9,64.4,23.9,76.4c-8.8,9.6-86.9,14.3-86.9,14.3s73.9,28.6,86,44.2
	c10.8,13.8-30.6,128.8-30.6,128.8s53.6-94.4,69.9-97.1c6.6-1.1,55,105.3,55,105.3s-37.7-107.5-31.8-123.5
	c7.3-19.7,78.9,24.1,78.9,24.1s-63.1-52-68.2-75.6c-3.2-14.9,59.1-79,59.1-79s-66.9,50.3-78.6,35.6c-12.8-16.2-25.9-76.3-25.9-76.3
	s9.6,77.3,0.7,75.7C2045.1,3189.3,2006.5,3139.1,2006.5,3139.1z"/>
<path class="st0" d="M2246.3,2232.8c0,0-20.8,18.4-16.1,31.3c4.8,12.9,47.3,36,47.3,36s-42.6-13.3-47.4-4.5
	c-4.8,8.8,25.2,59.5,25.2,59.5s-37.4-47-49-47.4c-11.6-0.5-14.9,33.1-14.9,33.1s-7.2-38.1-18.8-47.5c-11.6-9.5-51.5,4.8-51.5,4.8
	s32.5-24.4,27.8-37.3c-4.8-12.9-47.3-36-47.3-36s42.6,13.3,47.4,4.5c4.8-8.8-21.4-51.7-21.4-51.7s33.7,39.1,45.3,39.6
	c11.6,0.5,16.1-32.8,16.1-32.8s5.9,37.7,17.5,47.2C2218.1,2241.1,2246.3,2232.8,2246.3,2232.8z"/>
<path class="st0" d="M2191.8,319.9c0,0,43.2,6.9,50.6-14.1c7.4-21-19.7-103.8-19.7-103.8s36.9,71.8,51.5,68.2
	c14.6-3.5,30.2-101,30.2-101s-3,103.1,10.2,119.1c13.3,16,51-17.7,51-17.7s-29.8,52.7-25.6,78.9c4.2,26.2,65.8,63.2,65.8,63.2
	s-63-15.7-70.4,5.2c-7.4,21,19.7,103.8,19.7,103.8s-36.9-71.8-51.5-68.2c-14.6,3.5-26.7,87.1-26.7,87.1s-0.4-89.2-13.7-105.2
	c-13.3-16-52.1,15.6-52.1,15.6s30.9-50.7,26.8-76.8C2233.6,348.1,2191.8,319.9,2191.8,319.9z"/>
<path class="st0" d="M1176.1,1836.2c0,0-25.8-19.7-36-20.2c-10.3-0.5-31.7,25.5-31.7,25.5s14.2-30.1,7.9-35.4
	c-6.3-5.3-46.1-8.1-46.1-8.1s37.4-2.7,38.7-9.7c1.3-7-21.1-33-21.1-33s26.7,20.8,34.9,16.3c8.2-4.5,0.5-32.7,0.5-32.7
	s16,26.3,26.2,26.8c10.3,0.5,34.3-34.3,34.3-34.3s-16.6,37.4-10.2,42.7c6.3,5.3,41.2,0.7,41.2,0.7s-37,8.9-38.3,15.9
	c-1.3,7,23.8,18.6,23.8,18.6s-25-5.2-33.1-0.7C1158.9,1813.2,1176.1,1836.2,1176.1,1836.2z"/>
<path class="st0" d="M1394.3,2330.1c0,0-41.9-17.4-50.6-10.2c-8.7,7.1-4.5,41.9-4.5,41.9s-10.7-32.7-23.3-32.8
	c-12.6-0.2-26.1,35.3-26.1,35.3s6.4-37.9-4.2-45.3c-10.6-7.4-48,8.8-48,8.8s33-22,29.3-33.1c-3.7-11.2-47.4-21.8-47.4-21.8
	s39.1,2.9,44.1-6.9c5-9.7-32.1-44.3-32.1-44.3s43.8,28.7,55.1,24.9c11.3-3.7,15.1-50.5,15.1-50.5s6.8,50.1,19.2,54.2
	c12.4,4,34.6-19.1,34.6-19.1s-14.5,25.6-6.8,35.5c7.6,9.9,63.7,1.4,63.7,1.4s-52.1,18.9-52.8,30.1
	C1358.8,2309.2,1394.3,2330.1,1394.3,2330.1z"/>
<path class="st0" d="M2397.3,2417.8c0,0-18.5-28.7-25.5-26.9c-7,1.8-15.1,28.4-15.1,28.4s3.8-27.6-3.3-32.6c-7.1-5-56,30.8-56,30.8
	s39.2-40.4,35.4-49.8c-3.8-9.4-40.8-16.8-40.8-16.8s42.7,1.7,43.9-7.7c1.3-9.5-37.7-38.8-37.7-38.8s38.7,21.9,44.4,16.9
	c5.7-5.1-4-34.5-4-34.5s15.3,27.7,22.8,29.5c7.5,1.7,23.7-30.5,23.7-30.5s-11.2,38.6-5.4,46.3c5.8,7.7,44.2-3.1,44.2-3.1
	s-34.8,15.6-33.5,25.7s53,30.3,53,30.3s-52.6-11.3-56.3-3.6C2383.5,2389.1,2397.3,2417.8,2397.3,2417.8z"/>
<path class="st0" d="M1765.3,3342.9c0,0,11.9-45.3,3.9-56.5c-7.9-11.3-42.9,1.2-42.9,1.2s32.1-20.4,30.8-34.9
	c-1.3-14.5-58.6-45.1-58.6-45.1s58.7,22.7,64.7,11.8c5.9-11-14.2-56.9-14.2-56.9s25.1,41.9,35.5,39.6c10.4-2.3,8.5-82.9,8.5-82.9
	s11.6,73.3,21.5,80.8c10,7.5,36.4-26,36.4-26s-17.7,43.1-12.8,56.8c4.9,13.7,69,23.6,69,23.6s-70.8,4.2-73.3,17.7
	c-2.5,13.6,22.6,43.3,22.6,43.3s-26.5-21.2-35.2-14.1c-8.7,7.1,23.9,109.6,23.9,109.6s-38.8-91.1-49.6-93.9
	C1784.7,3314.3,1765.3,3342.9,1765.3,3342.9z"/>
<path class="st0" d="M264.4,3196.4c0.3-16.3-76.3-96.9-76.3-96.9s80,50.9,88.1,43.2c8.2-7.7,16.2-112.8,16.2-112.8
	s5.3,120.7,13.2,129.3c7.9,8.6,42.4-13.2,42.4-13.2s-25.9,34.9-26.2,51.2c-0.3,16.3,42.8,79.1,42.8,79.1s-48.9-35.8-57-28.1
	c-8.2,7.7-7.5,162.7-7.5,162.7s-16.5-153.4-24.4-162c-7.9-8.6-48.9,47.2-48.9,47.2S264.1,3212.7,264.4,3196.4z"/>
<path class="st0" d="M535,3225c9.6,3.9,29.9-94.9,29.9-94.9s-7.8,77.4-2.6,92.1c5.2,14.7,67.1,1.7,67.1,1.7s-52.5,42.5-54.2,59.5
	c-4.5,46,29.6,127.6,29.6,127.6s-50.6-87.7-59-78.5c-8.4,9.2-27.3,76.9-27.3,76.9s15.1-97.5,5.5-101.5
	c-9.6-3.9-49.9,100.3-49.9,100.3s28.6-96,23.4-110.7c-5.2-14.7-65.5-14.5-65.5-14.5s71-11.2,73.2-28.1c2.2-16.9-48.7-77.7-48.7-77.7
	s46.6,45.3,54.9,36.1c8.4-9.2-9.3-91.8-9.3-91.8S525.4,3221.1,535,3225z"/>
<path class="st0" d="M873.8,3221.3c0,0-32.8,31.1-30.1,44.6c2.7,13.5,35.2,32,35.2,32s-33.3-10.5-38.7,2.1
	c-5.4,12.7,41.5,109,41.5,109s-51.6-78.7-62.6-72.7c-11,5.9-16.8,74.6-16.8,74.6s-1.5-79.9-12.9-83.5c-11.4-3.6-43.3,66-43.3,66
	s23-70,16.5-81.4c-6.5-11.4-41,3.3-41,3.3s32-25.3,33.4-39.2c1.4-13.9-38.4-48.3-38.4-48.3s47.2,25.8,55.9,16
	c8.7-9.9-7.4-83.5-7.4-83.5s21.6,67.3,33.5,66.1c11.9-1.3,31.9-95.9,31.9-95.9s-9.2,97.3,0.4,105.3
	C840.6,3243.7,873.8,3221.3,873.8,3221.3z"/>
<path class="st0" d="M508.2,1800.2c0,0,34.9,64.4,23.9,76.4c-8.8,9.6-86.9,14.3-86.9,14.3s73.9,28.6,86,44.2
	c10.8,13.8-30.6,128.8-30.6,128.8s53.6-94.4,69.9-97.1c6.6-1.1,55,105.3,55,105.3s-37.7-107.5-31.8-123.5
	c7.3-19.7,78.9,24.1,78.9,24.1s-63.1-52-68.2-75.6c-3.2-14.9,59.1-79,59.1-79s-66.9,50.3-78.6,35.6c-12.8-16.2-25.9-76.3-25.9-76.3
	s9.6,77.3,0.7,75.7C546.7,1850.4,508.2,1800.2,508.2,1800.2z"/>
<path class="st0" d="M150.5,1204.2c0,0,11.9-45.3,3.9-56.6c-7.9-11.3-42.9,1.2-42.9,1.2s32.1-20.4,30.8-34.9
	c-1.3-14.5-58.6-45.1-58.6-45.1s58.7,22.7,64.7,11.8c5.9-11-14.2-56.9-14.2-56.9s25.1,41.9,35.5,39.6c10.4-2.3,8.5-82.9,8.5-82.9
	s11.6,73.3,21.5,80.8c10,7.5,36.4-26,36.4-26s-17.7,43.1-12.8,56.8c4.9,13.7,69,23.6,69,23.6s-70.8,4.2-73.3,17.7
	c-2.5,13.6,22.6,43.3,22.6,43.3s-26.5-21.2-35.2-14.1c-8.7,7.1,23.9,109.6,23.9,109.6s-38.8-91.1-49.6-93.9
	C169.9,1175.6,150.5,1204.2,150.5,1204.2z"/>
<path class="st0" d="M2445.1,2245.3c0,0-34.6-19.4-40.6-16.3s3.2,35.2,3.2,35.2s-12.4-28.8-20.6-30.1c-8.1-1.3-14.7,16.9-14.7,16.9
	s4.3-22.3-2.9-27.4c-7.1-5.1-29.3,4.5-29.3,4.5s20.2-11.8,16.8-18.8c-3.4-6.9-31.8-10.1-31.8-10.1s24.5-0.3,26.2-6.4
	c1.6-6.2-26.9-22.8-26.9-22.8s33.4,15.9,39.4,12.8c6-3-4.7-27.7-4.7-27.7s13.3,24.3,21.4,25.6c8.1,1.2,14.5-16.1,14.5-16.1
	s-3.5,18.6,3.6,23.6c7.1,5.1,29.3-4.5,29.3-4.5s-20.2,11.8-16.8,18.8c3.4,6.9,28.7,11.6,28.7,11.6s-25-2.2-26.6,3.9
	C2412,2224.2,2445.1,2245.3,2445.1,2245.3z"/>
<path class="st0" d="M3133.3,711.1c0,0,92.7,36.7,84.1,50.6c-6.9,11-93.9,2.7-93.9,2.7s66.8,11.5,77.5,22.3
	c10.6,10.5-39.9,46.6-39.9,46.6s60.8-24.7,77.7-21.8c23.3,3.9,23.6,52.8,23.6,52.8s1.3-42.9,23.7-46.1c13-1.8,78.3,27.6,78.3,27.6
	s-50.3-49.5-38.9-61.6c14.3-15.1,86.5-21.2,86.5-21.2s-74.8,0.1-96-12.6c-13.4-8.1,16.5-59.3,16.5-59.3s-51.3,36.9-63.8,35
	c-27.8-4.1-52-32.3-52-32.3s14.9,28.4,1.2,32.1C3197.6,731.3,3133.3,711.1,3133.3,711.1z"/>
<path class="st0" d="M521.2,303.9c-10.3-5.5-85.1,78.9-85.1,78.9s57-98.2,54.6-112.2c-2.4-14-66.7-57.8-66.7-57.8s78.3,29.6,86.2,21
	c7.9-8.6,4.7-64.5,4.7-64.5s14.2,47.6,24.5,53c10.3,5.5,63.5-36.6,63.5-36.6s-37.8,58.6-35.4,72.6c2.4,14,101.1,60.9,101.1,60.9
	S566,295.4,558.1,304c-7.9,8.6,14.9,84.1,14.9,84.1S531.5,309.3,521.2,303.9z"/>
<path class="st0" d="M263.9,304.2c5.4-12.5-51.1-71.9-51.1-71.9s46.8,35,57.7,32.1c11-2.9,21.7-95.1,21.7-95.1s10.8,87.9,21.1,95.6
	c27.9,20.6,90.2-2.9,90.2-2.9s-71.3,45.1-68.1,59.8c3.3,14.7,40.5,62.6,40.5,62.6s-57.3-51.6-62.8-39.1c-5.4,12.5,48.4,102,48.4,102
	s-52.2-70.3-63.2-67.4c-10.9,2.9-29.4,88.8-29.4,88.8s14.8-104.6,4.7-112.9c-10-8.4-64.4,45.4-64.4,45.4s43.1-52.3,39.9-67.1
	c-3.3-14.7-61.2-15.1-61.2-15.1S258.5,316.7,263.9,304.2z"/>
<path class="st0" d="M1658.1,1414.3c0,0,7.9,30.7,15.6,30.9c7.7,0.2,25.4-22,25.4-22s-13.8,24.1-8.6,30.5c5.2,6.3,67-13.9,67-13.9
	s-53.8,26.9-53.5,36.4c0.3,9.5,34.5,25.5,34.5,25.5s-41.8-12.3-46.6-4c-4.7,8.3,23.3,44.7,23.3,44.7s-30.5-29.6-38.1-26.5
	c-7.6,3.2-8.6,32.4-8.6,32.4s-5.1-29.1-11.9-32.5c-6.8-3.4-34.7,21.7-34.7,21.7s25.3-32.3,22.3-40.7c-2.9-8.4-45.2-8.3-45.2-8.3
	s40.3-5.5,42.7-14.9c2.4-9.5-41.7-40.9-41.7-40.9s48.2,23.5,54.7,17.4C1661.4,1443.9,1658.1,1414.3,1658.1,1414.3z"/>
<path class="st0" d="M427.3,1417.5c0,0,12.1,77.1,28.7,84.1c16.6,7,84.5-87.5,84.5-87.5s-59.7,102.5-49.5,121.5
	c10.3,19,68,9.7,68,9.7s-54.8,21.9-55.7,44c-0.9,22.1,51.5,64.5,51.5,64.5s-55.2-30.2-66.7-15.4c-11.6,14.8,10.9,89.1,10.9,89.1
	s-28.8-60.9-45.7-60.3c-16.9,0.6-32.2,84.1-32.2,84.1s1-89.3-13.2-103.2c-14.3-13.8-78.7,19.5-78.7,19.5s59.9-51.9,54.9-73.8
	c-5-21.9-63.4-43.9-63.4-43.9s45.5,0.3,52.2-19.3c6.6-19.6-41.7-88.4-41.7-88.4s68.1,62.2,83.2,53.9
	C429.5,1488,427.3,1417.5,427.3,1417.5z"/>
<path class="st0" d="M1443.2,385.2c0,0,51.7-29.9,55.9-10.5c3.4,15.5-17.7,128.2-17.7,128.2s40.9-96.4,54.6-108.9
	c12.1-11.1,72.4,83.2,72.4,83.2s-43.4-105.5-40.2-129.5c1.3-9.7,83.8-45.9,83.8-45.9s-79.9,20.6-88.3,7.2
	c-10.2-16.4,39.6-104.9,39.6-104.9s-52.5,73.9-69.1,73.9c-10.5,0-32-108.6-32-108.6s11.4,110.8-1.6,122.9
	c-14.3,13.3-56.5,13.3-56.5,13.3s52.1,10.1,48.3,22.3C1487,345.8,1443.2,385.2,1443.2,385.2z"/>
<path class="st0" d="M2081.3,398.6c0,0-25.1-30.9-34.7-23c-9.6,7.8-12.4,61.5-12.4,61.5s-3.1-52-12.7-54.7
	c-9.6-2.6-46.7,69.6-46.7,69.6s32.5-76.6,27.4-88.5c-5.1-11.8-40.5,2.6-40.5,2.6s34.4-22.8,36.1-38.3c1.7-15.5-50-37.6-50-37.6
	s50.2,6.1,58-5.8c7.8-11.9-5.3-59.8-5.3-59.8s21.9,38.5,32.1,35.8c10.2-2.8,36.3-91,36.3-91s-19.2,102.2-11.3,109.9
	c7.9,7.7,34.5-18.8,34.5-18.8s-21.6,31.2-19.8,45.7c1.8,14.5,77-0.3,77-0.3s-69.9,27.2-74.9,41.8
	C2069.1,362.2,2081.3,398.6,2081.3,398.6z"/>
<path class="st0" d="M1108.9,3410.9c0,0-47.6-80.9-37.8-97.9c7.8-13.6,60.5,25,60.5,25s-38.9-37-42.4-55.6
	c-3.5-18.2,39.7-54.1,39.7-54.1s-46.3,16.4-56.1,7.1c-13.6-12.8,1.3-82.4,1.3-82.4s-14,60.8-29.3,58.4c-8.8-1.4-41.3-63.4-41.3-63.4
	s16.7,86,5.7,99.7c-13.8,17.1-61.5,3.6-61.5,3.6s47.6,22.8,57.1,47.6c6,15.6-28.7,79.4-28.7,79.4s44-36.7,51.3-30.2
	c16.4,14.4,23.1,62,23.1,62s-0.8-45,9.1-46.1C1074.2,3362.4,1108.9,3410.9,1108.9,3410.9z"/>
<path class="st0" d="M1886.9,1270.5c0,0-19.2-17-25.3-13.1c-6.1,3.9-4.6,32.1-4.6,32.1s-5.4-27.6-12.2-29.2
	c-6.8-1.6-27.6,35.4-27.6,35.4s17.4-39.5,13.1-45.9c-4.3-6.4-27.7,0.3-27.7,0.3s22.1-11.1,22.3-19.2c0.2-8.1-36.8-21.2-36.8-21.2
	s34.9,4.6,39.5-1.4c4.6-6.1-7.5-31.7-7.5-31.7s17.5,20.9,24.4,19.8c6.9-1.2,19.1-47,19.1-47s-6.6,53.4-0.7,57.7
	c5.9,4.3,22.5-8.9,22.5-8.9s-12.9,15.9-10.7,23.6c2.2,7.7,52.9,2,52.9,2s-46.2,12.4-48.8,20
	C1876.1,1250.9,1886.9,1270.5,1886.9,1270.5z"/>
<path class="st0" d="M2126.7,1747c5.7,7.2-6.9,35.5-6.9,35.5s16.8-24.3,26.3-19.2c10.3,5.5,30.4,28.9,30.4,28.9
	s-15.6-34.3-14.1-40.6c2.1-8.6,36.2-2.5,36.2-2.5s-28.9-8.5-31.8-17.7c-1.7-5.3,15.8-24.4,15.8-24.4s-28.9,16.1-37.6,10.1
	c-11-7.5-13-33.7-13-33.7s2.3,29.2-6,35.9c-5.2,4.2-42.8,0-42.8,0S2116.1,1733.6,2126.7,1747z"/>
<path class="st0" d="M1007.4,1220.1c-2.8,6,18.1,46.7,18.1,46.7s-23.9-32.5-31.3-33.3c-7.4-0.8-21.4,15-21.4,15s13.1-24.7,8.4-31.5
	c-4.7-6.8-38.6-12.7-38.6-12.7s25.2-1.5,27.9-7.5c2.8-6-24.6-44.3-24.6-44.3s38.6,35.3,46,36.1c7.4,0.8,19.7-25.3,19.7-25.3
	s-6.8,29.6-2.1,36.4c4.7,6.8,40.6,13,40.6,13S1010.2,1214,1007.4,1220.1z"/>
<path class="st0" d="M2247.5,2659.8c0,0-18.4-39.9-8.9-43.2c7.6-2.7,65.6,13.4,65.6,13.4s-51.1-31.4-58.3-41.9
	c-6.4-9.3,37.1-56.1,37.1-56.1s-50.2,33.8-62.5,31.3c-5-1-28.5-64.7-28.5-64.7s15.5,61.7,9.3,68.2c-7.6,7.9-55.3-30.4-55.3-30.4
	s40.6,40.4,41.6,53.2c0.7,8.1-52.5,25-52.5,25s55-9,61.9,1c7.6,11,10.4,43.6,10.4,43.6s1.7-40.3,8.1-37.4
	C2224.9,2626.1,2247.5,2659.8,2247.5,2659.8z"/>
<path class="st0" d="M1946.8,2356c0,0,27.8,22.6,35.4,19.4c7.6-3.2,10.4-29.7,10.4-29.7s2.3,26.5,11.5,29.5
	c9.2,3.1,25.2-19.8,25.2-19.8s-11.1,26.3-4.6,34.2c6.5,7.9,36.7,4.8,36.7,4.8s-27.9,8.4-27.1,17.5c0.8,9.1,31.1,27.1,31.1,27.1
	s-28.2-11.3-33.5-5.3c-5.3,6,16.1,40,16.1,40s-27.3-31.3-36.2-31.2c-8.9,0.1-19.7,33.5-19.7,33.5s3.5-38.4-4.9-44.2
	c-8.4-5.9-28.7,5.9-28.7,5.9s15-15.4,11-24.5s-46.5-15.9-46.5-15.9s41.4-1.7,43.8-9.7C1969.3,2379.7,1946.8,2356,1946.8,2356z"/>
<path class="st0" d="M686.9,183.3c0,0,63.3,61.1,77.4,58.9c14.1-2.2,10.4-72.9,10.4-72.9s12.2,66,28.6,73.7
	c16.5,7.7,39-24.6,39-24.6s-19.8,42.2-7.3,57c12.5,14.8,63.9,9.7,63.9,9.7s-48.3,10.8-44.5,27c3.8,16.1,61.9,40.7,61.9,40.7
	s-51.8-15.2-58.1-3.9c-6.4,11.4,45.4,63.2,45.4,63.2s-62.5-53.4-76.7-51.1c-14.1,2.3-3.7,58.7-3.7,58.7s-16.2-57.5-32.7-65.2
	c-16.5-7.7-38.4,23.1-38.4,23.1s16.4-35.1,3.9-49.9c-12.5-14.7-63.9-9.7-63.9-9.7s48.3-10.8,44.5-27c-3.8-16.1-54.7-41.9-54.7-41.9
	s51.4,20.5,57.8,9.2C746.3,247,686.9,183.3,686.9,183.3z"/>
<path class="st0" d="M1785.7,2424.6c0,0,22-31.5,16-38.5c-6.1-6.9-53.7-4.7-53.7-4.7s41.7-6.4,41.8-14.5
	c0.1-8.2-29.4-19.1-29.4-19.1s35.5,9.5,41.7,3.3c6.2-6.2-13.7-31.5-13.7-31.5s22.9,23.7,32.9,21.8c9.9-1.9,8.4-30.7,8.4-30.7
	s6,25.6,15.9,28.7c9.9,3.1,29.1-22.7,29.1-22.7s-16.9,31.1-10.9,38.1c6.1,6.9,41.7,1.5,41.7,1.5s-34.5,8.3-34.6,16.5
	c-0.1,8.2,28.2,18.8,28.2,18.8s-29.5-7.9-35.7-1.6c-6.2,6.2,13.7,31.5,13.7,31.5s-22.9-23.7-32.9-21.8c-9.9,2-11.4,27.2-11.4,27.2
	s-2.2-25.5-12.1-28.5C1810.7,2395,1785.7,2424.6,1785.7,2424.6z"/>
<path class="st0" d="M1201.1,2424.1c0,0-39.2,10-38.7,20.2c0.5,10.2,34,27.3,34,27.3s-46.7-18-53.4-9.4
	c-6.6,8.6,26.6,38.4,26.6,38.4s-26.7-21.7-38.4-17.5c-11.7,4.2-4.4,37.1-4.4,37.1s-9.6-35.9-22.6-37.4c-13-1.4-23.9,28.4-23.9,28.4
	s2.8-23.6-7.4-30.3c-10.2-6.7-43.1,5.4-43.1,5.4s37.7-20.4,33.5-30.2c-4.2-9.8-51-10.6-51-10.6s46.7-0.9,49.9-10.7
	c3.2-9.8-36.6-30.2-36.6-30.2s35.6,15.7,45.2,9.1c9.5-6.7-5.2-33.7-5.2-33.7c-3.6-4.9,20.6,30.7,35.3,29
	c12.8-1.5,10.2-33.2,10.2-33.2s5.2,29.7,17.3,33.9c12.1,4.2,36.1-15.8,36.1-15.8s-18.3,21.3-10.8,29.9
	C1161.2,2432.4,1201.1,2424.1,1201.1,2424.1z"/>
<path class="st0" d="M2460.2,2434.9c0,0,18.3,29.5,28.5,29.8s33.9-48.6,33.9-48.6s-17.9,50.9-9.4,57c8.5,6.2,39.2-6.5,39.2-6.5
	s-27.2,17.3-24.4,26.5c2.8,9.1,38.3,18.3,38.3,18.3s-35.2-3.8-39.4,4c-4.2,7.8,19.4,34.6,19.4,34.6s-25.1-20.4-34.4-17.5
	c-9.3,2.9-5.3,39.2-5.3,39.2s-12.8-36.5-22.8-39.9c-10-3.4-40.8,20-40.8,20s25.5-30.3,19.5-38.4c-6-8.1-41.8-8.1-41.8-8.1
	s25.4-6.9,26.1-15.9c0.7-9-36.4-29.6-36.4-29.6s47.2,14.8,54.3,9.2C2472,2463.2,2460.2,2434.9,2460.2,2434.9z"/>
</svg>
